G04 #@! TF.GenerationSoftware,KiCad,Pcbnew,(5.1.5)-3*
G04 #@! TF.CreationDate,2020-07-19T03:42:33+05:30*
G04 #@! TF.ProjectId,HA-V1.0,48412d56-312e-4302-9e6b-696361645f70,rev?*
G04 #@! TF.SameCoordinates,Original*
G04 #@! TF.FileFunction,Soldermask,Bot*
G04 #@! TF.FilePolarity,Negative*
%FSLAX46Y46*%
G04 Gerber Fmt 4.6, Leading zero omitted, Abs format (unit mm)*
G04 Created by KiCad (PCBNEW (5.1.5)-3) date 2020-07-19 03:42:33*
%MOMM*%
%LPD*%
G04 APERTURE LIST*
%ADD10C,0.100000*%
G04 APERTURE END LIST*
D10*
G36*
X143324903Y-118297075D02*
G01*
X143488479Y-118364830D01*
X143552571Y-118391378D01*
X143757466Y-118528285D01*
X143931715Y-118702534D01*
X143931716Y-118702536D01*
X144068623Y-118907431D01*
X144162925Y-119135097D01*
X144211000Y-119376786D01*
X144211000Y-119623214D01*
X144165690Y-119851000D01*
X144162925Y-119864903D01*
X144068622Y-120092571D01*
X143931715Y-120297466D01*
X143757466Y-120471715D01*
X143552571Y-120608622D01*
X143552570Y-120608623D01*
X143552569Y-120608623D01*
X143324903Y-120702925D01*
X143083214Y-120751000D01*
X142836786Y-120751000D01*
X142595097Y-120702925D01*
X142367431Y-120608623D01*
X142367430Y-120608623D01*
X142367429Y-120608622D01*
X142162534Y-120471715D01*
X141988285Y-120297466D01*
X141851378Y-120092571D01*
X141757075Y-119864903D01*
X141754310Y-119851000D01*
X141709000Y-119623214D01*
X141709000Y-119376786D01*
X141757075Y-119135097D01*
X141851377Y-118907431D01*
X141988284Y-118702536D01*
X141988285Y-118702534D01*
X142162534Y-118528285D01*
X142367429Y-118391378D01*
X142431522Y-118364830D01*
X142595097Y-118297075D01*
X142836786Y-118249000D01*
X143083214Y-118249000D01*
X143324903Y-118297075D01*
G37*
G36*
X140120752Y-118252699D02*
G01*
X140150971Y-118261866D01*
X140178813Y-118276748D01*
X140203221Y-118296779D01*
X140223252Y-118321187D01*
X140238134Y-118349029D01*
X140247301Y-118379248D01*
X140251000Y-118416808D01*
X140251000Y-120583192D01*
X140247301Y-120620752D01*
X140238134Y-120650971D01*
X140223252Y-120678813D01*
X140203221Y-120703221D01*
X140178813Y-120723252D01*
X140150971Y-120738134D01*
X140120752Y-120747301D01*
X140083192Y-120751000D01*
X137916808Y-120751000D01*
X137879248Y-120747301D01*
X137849029Y-120738134D01*
X137821187Y-120723252D01*
X137796779Y-120703221D01*
X137776748Y-120678813D01*
X137761866Y-120650971D01*
X137752699Y-120620752D01*
X137749000Y-120583192D01*
X137749000Y-118416808D01*
X137752699Y-118379248D01*
X137761866Y-118349029D01*
X137776748Y-118321187D01*
X137796779Y-118296779D01*
X137821187Y-118276748D01*
X137849029Y-118261866D01*
X137879248Y-118252699D01*
X137916808Y-118249000D01*
X140083192Y-118249000D01*
X140120752Y-118252699D01*
G37*
G36*
X126620752Y-118252699D02*
G01*
X126650971Y-118261866D01*
X126678813Y-118276748D01*
X126703221Y-118296779D01*
X126723252Y-118321187D01*
X126738134Y-118349029D01*
X126747301Y-118379248D01*
X126751000Y-118416808D01*
X126751000Y-120583192D01*
X126747301Y-120620752D01*
X126738134Y-120650971D01*
X126723252Y-120678813D01*
X126703221Y-120703221D01*
X126678813Y-120723252D01*
X126650971Y-120738134D01*
X126620752Y-120747301D01*
X126583192Y-120751000D01*
X124416808Y-120751000D01*
X124379248Y-120747301D01*
X124349029Y-120738134D01*
X124321187Y-120723252D01*
X124296779Y-120703221D01*
X124276748Y-120678813D01*
X124261866Y-120650971D01*
X124252699Y-120620752D01*
X124249000Y-120583192D01*
X124249000Y-118416808D01*
X124252699Y-118379248D01*
X124261866Y-118349029D01*
X124276748Y-118321187D01*
X124296779Y-118296779D01*
X124321187Y-118276748D01*
X124349029Y-118261866D01*
X124379248Y-118252699D01*
X124416808Y-118249000D01*
X126583192Y-118249000D01*
X126620752Y-118252699D01*
G37*
G36*
X129824903Y-118297075D02*
G01*
X129988479Y-118364830D01*
X130052571Y-118391378D01*
X130257466Y-118528285D01*
X130431715Y-118702534D01*
X130431716Y-118702536D01*
X130568623Y-118907431D01*
X130662925Y-119135097D01*
X130711000Y-119376786D01*
X130711000Y-119623214D01*
X130665690Y-119851000D01*
X130662925Y-119864903D01*
X130568622Y-120092571D01*
X130431715Y-120297466D01*
X130257466Y-120471715D01*
X130052571Y-120608622D01*
X130052570Y-120608623D01*
X130052569Y-120608623D01*
X129824903Y-120702925D01*
X129583214Y-120751000D01*
X129336786Y-120751000D01*
X129095097Y-120702925D01*
X128867431Y-120608623D01*
X128867430Y-120608623D01*
X128867429Y-120608622D01*
X128662534Y-120471715D01*
X128488285Y-120297466D01*
X128351378Y-120092571D01*
X128257075Y-119864903D01*
X128254310Y-119851000D01*
X128209000Y-119623214D01*
X128209000Y-119376786D01*
X128257075Y-119135097D01*
X128351377Y-118907431D01*
X128488284Y-118702536D01*
X128488285Y-118702534D01*
X128662534Y-118528285D01*
X128867429Y-118391378D01*
X128931522Y-118364830D01*
X129095097Y-118297075D01*
X129336786Y-118249000D01*
X129583214Y-118249000D01*
X129824903Y-118297075D01*
G37*
G36*
X149248228Y-118681703D02*
G01*
X149403100Y-118745853D01*
X149542481Y-118838985D01*
X149661015Y-118957519D01*
X149754147Y-119096900D01*
X149818297Y-119251772D01*
X149851000Y-119416184D01*
X149851000Y-119583816D01*
X149818297Y-119748228D01*
X149754147Y-119903100D01*
X149661015Y-120042481D01*
X149542481Y-120161015D01*
X149403100Y-120254147D01*
X149248228Y-120318297D01*
X149083816Y-120351000D01*
X148916184Y-120351000D01*
X148751772Y-120318297D01*
X148596900Y-120254147D01*
X148457519Y-120161015D01*
X148338985Y-120042481D01*
X148245853Y-119903100D01*
X148181703Y-119748228D01*
X148149000Y-119583816D01*
X148149000Y-119416184D01*
X148181703Y-119251772D01*
X148245853Y-119096900D01*
X148338985Y-118957519D01*
X148457519Y-118838985D01*
X148596900Y-118745853D01*
X148751772Y-118681703D01*
X148916184Y-118649000D01*
X149083816Y-118649000D01*
X149248228Y-118681703D01*
G37*
G36*
X160368228Y-118181703D02*
G01*
X160523100Y-118245853D01*
X160662481Y-118338985D01*
X160781015Y-118457519D01*
X160874147Y-118596900D01*
X160938297Y-118751772D01*
X160971000Y-118916184D01*
X160971000Y-119083816D01*
X160938297Y-119248228D01*
X160874147Y-119403100D01*
X160781015Y-119542481D01*
X160662481Y-119661015D01*
X160523100Y-119754147D01*
X160368228Y-119818297D01*
X160203816Y-119851000D01*
X160036184Y-119851000D01*
X159871772Y-119818297D01*
X159716900Y-119754147D01*
X159577519Y-119661015D01*
X159458985Y-119542481D01*
X159365853Y-119403100D01*
X159301703Y-119248228D01*
X159269000Y-119083816D01*
X159269000Y-118916184D01*
X159301703Y-118751772D01*
X159365853Y-118596900D01*
X159458985Y-118457519D01*
X159577519Y-118338985D01*
X159716900Y-118245853D01*
X159871772Y-118181703D01*
X160036184Y-118149000D01*
X160203816Y-118149000D01*
X160368228Y-118181703D01*
G37*
G36*
X152748228Y-118181703D02*
G01*
X152903100Y-118245853D01*
X153042481Y-118338985D01*
X153161015Y-118457519D01*
X153254147Y-118596900D01*
X153318297Y-118751772D01*
X153351000Y-118916184D01*
X153351000Y-119083816D01*
X153318297Y-119248228D01*
X153254147Y-119403100D01*
X153161015Y-119542481D01*
X153042481Y-119661015D01*
X152903100Y-119754147D01*
X152748228Y-119818297D01*
X152583816Y-119851000D01*
X152416184Y-119851000D01*
X152251772Y-119818297D01*
X152096900Y-119754147D01*
X151957519Y-119661015D01*
X151838985Y-119542481D01*
X151745853Y-119403100D01*
X151681703Y-119248228D01*
X151649000Y-119083816D01*
X151649000Y-118916184D01*
X151681703Y-118751772D01*
X151745853Y-118596900D01*
X151838985Y-118457519D01*
X151957519Y-118338985D01*
X152096900Y-118245853D01*
X152251772Y-118181703D01*
X152416184Y-118149000D01*
X152583816Y-118149000D01*
X152748228Y-118181703D01*
G37*
G36*
X168748228Y-116681703D02*
G01*
X168903100Y-116745853D01*
X169042481Y-116838985D01*
X169161015Y-116957519D01*
X169254147Y-117096900D01*
X169318297Y-117251772D01*
X169351000Y-117416184D01*
X169351000Y-117583816D01*
X169318297Y-117748228D01*
X169254147Y-117903100D01*
X169161015Y-118042481D01*
X169042481Y-118161015D01*
X168903100Y-118254147D01*
X168748228Y-118318297D01*
X168583816Y-118351000D01*
X168416184Y-118351000D01*
X168251772Y-118318297D01*
X168096900Y-118254147D01*
X167957519Y-118161015D01*
X167838985Y-118042481D01*
X167745853Y-117903100D01*
X167681703Y-117748228D01*
X167649000Y-117583816D01*
X167649000Y-117416184D01*
X167681703Y-117251772D01*
X167745853Y-117096900D01*
X167838985Y-116957519D01*
X167957519Y-116838985D01*
X168096900Y-116745853D01*
X168251772Y-116681703D01*
X168416184Y-116649000D01*
X168583816Y-116649000D01*
X168748228Y-116681703D01*
G37*
G36*
X176368228Y-116681703D02*
G01*
X176523100Y-116745853D01*
X176662481Y-116838985D01*
X176781015Y-116957519D01*
X176874147Y-117096900D01*
X176938297Y-117251772D01*
X176971000Y-117416184D01*
X176971000Y-117583816D01*
X176938297Y-117748228D01*
X176874147Y-117903100D01*
X176781015Y-118042481D01*
X176662481Y-118161015D01*
X176523100Y-118254147D01*
X176368228Y-118318297D01*
X176203816Y-118351000D01*
X176036184Y-118351000D01*
X175871772Y-118318297D01*
X175716900Y-118254147D01*
X175577519Y-118161015D01*
X175458985Y-118042481D01*
X175365853Y-117903100D01*
X175301703Y-117748228D01*
X175269000Y-117583816D01*
X175269000Y-117416184D01*
X175301703Y-117251772D01*
X175365853Y-117096900D01*
X175458985Y-116957519D01*
X175577519Y-116838985D01*
X175716900Y-116745853D01*
X175871772Y-116681703D01*
X176036184Y-116649000D01*
X176203816Y-116649000D01*
X176368228Y-116681703D01*
G37*
G36*
X185248228Y-116681703D02*
G01*
X185403100Y-116745853D01*
X185542481Y-116838985D01*
X185661015Y-116957519D01*
X185754147Y-117096900D01*
X185818297Y-117251772D01*
X185851000Y-117416184D01*
X185851000Y-117583816D01*
X185818297Y-117748228D01*
X185754147Y-117903100D01*
X185661015Y-118042481D01*
X185542481Y-118161015D01*
X185403100Y-118254147D01*
X185248228Y-118318297D01*
X185083816Y-118351000D01*
X184916184Y-118351000D01*
X184751772Y-118318297D01*
X184596900Y-118254147D01*
X184457519Y-118161015D01*
X184338985Y-118042481D01*
X184245853Y-117903100D01*
X184181703Y-117748228D01*
X184149000Y-117583816D01*
X184149000Y-117416184D01*
X184181703Y-117251772D01*
X184245853Y-117096900D01*
X184338985Y-116957519D01*
X184457519Y-116838985D01*
X184596900Y-116745853D01*
X184751772Y-116681703D01*
X184916184Y-116649000D01*
X185083816Y-116649000D01*
X185248228Y-116681703D01*
G37*
G36*
X192868228Y-116681703D02*
G01*
X193023100Y-116745853D01*
X193162481Y-116838985D01*
X193281015Y-116957519D01*
X193374147Y-117096900D01*
X193438297Y-117251772D01*
X193471000Y-117416184D01*
X193471000Y-117583816D01*
X193438297Y-117748228D01*
X193374147Y-117903100D01*
X193281015Y-118042481D01*
X193162481Y-118161015D01*
X193023100Y-118254147D01*
X192868228Y-118318297D01*
X192703816Y-118351000D01*
X192536184Y-118351000D01*
X192371772Y-118318297D01*
X192216900Y-118254147D01*
X192077519Y-118161015D01*
X191958985Y-118042481D01*
X191865853Y-117903100D01*
X191801703Y-117748228D01*
X191769000Y-117583816D01*
X191769000Y-117416184D01*
X191801703Y-117251772D01*
X191865853Y-117096900D01*
X191958985Y-116957519D01*
X192077519Y-116838985D01*
X192216900Y-116745853D01*
X192371772Y-116681703D01*
X192536184Y-116649000D01*
X192703816Y-116649000D01*
X192868228Y-116681703D01*
G37*
G36*
X164748228Y-116681703D02*
G01*
X164903100Y-116745853D01*
X165042481Y-116838985D01*
X165161015Y-116957519D01*
X165254147Y-117096900D01*
X165318297Y-117251772D01*
X165351000Y-117416184D01*
X165351000Y-117583816D01*
X165318297Y-117748228D01*
X165254147Y-117903100D01*
X165161015Y-118042481D01*
X165042481Y-118161015D01*
X164903100Y-118254147D01*
X164748228Y-118318297D01*
X164583816Y-118351000D01*
X164416184Y-118351000D01*
X164251772Y-118318297D01*
X164096900Y-118254147D01*
X163957519Y-118161015D01*
X163838985Y-118042481D01*
X163745853Y-117903100D01*
X163681703Y-117748228D01*
X163649000Y-117583816D01*
X163649000Y-117416184D01*
X163681703Y-117251772D01*
X163745853Y-117096900D01*
X163838985Y-116957519D01*
X163957519Y-116838985D01*
X164096900Y-116745853D01*
X164251772Y-116681703D01*
X164416184Y-116649000D01*
X164583816Y-116649000D01*
X164748228Y-116681703D01*
G37*
G36*
X160368228Y-113721703D02*
G01*
X160523100Y-113785853D01*
X160662481Y-113878985D01*
X160781015Y-113997519D01*
X160874147Y-114136900D01*
X160938297Y-114291772D01*
X160971000Y-114456184D01*
X160971000Y-114623816D01*
X160938297Y-114788228D01*
X160874147Y-114943100D01*
X160781015Y-115082481D01*
X160662481Y-115201015D01*
X160523100Y-115294147D01*
X160368228Y-115358297D01*
X160203816Y-115391000D01*
X160036184Y-115391000D01*
X159871772Y-115358297D01*
X159716900Y-115294147D01*
X159577519Y-115201015D01*
X159458985Y-115082481D01*
X159365853Y-114943100D01*
X159301703Y-114788228D01*
X159269000Y-114623816D01*
X159269000Y-114456184D01*
X159301703Y-114291772D01*
X159365853Y-114136900D01*
X159458985Y-113997519D01*
X159577519Y-113878985D01*
X159716900Y-113785853D01*
X159871772Y-113721703D01*
X160036184Y-113689000D01*
X160203816Y-113689000D01*
X160368228Y-113721703D01*
G37*
G36*
X152748228Y-113721703D02*
G01*
X152903100Y-113785853D01*
X153042481Y-113878985D01*
X153161015Y-113997519D01*
X153254147Y-114136900D01*
X153318297Y-114291772D01*
X153351000Y-114456184D01*
X153351000Y-114623816D01*
X153318297Y-114788228D01*
X153254147Y-114943100D01*
X153161015Y-115082481D01*
X153042481Y-115201015D01*
X152903100Y-115294147D01*
X152748228Y-115358297D01*
X152583816Y-115391000D01*
X152416184Y-115391000D01*
X152251772Y-115358297D01*
X152096900Y-115294147D01*
X151957519Y-115201015D01*
X151838985Y-115082481D01*
X151745853Y-114943100D01*
X151681703Y-114788228D01*
X151649000Y-114623816D01*
X151649000Y-114456184D01*
X151681703Y-114291772D01*
X151745853Y-114136900D01*
X151838985Y-113997519D01*
X151957519Y-113878985D01*
X152096900Y-113785853D01*
X152251772Y-113721703D01*
X152416184Y-113689000D01*
X152583816Y-113689000D01*
X152748228Y-113721703D01*
G37*
G36*
X171788228Y-112681703D02*
G01*
X171943100Y-112745853D01*
X172082481Y-112838985D01*
X172201015Y-112957519D01*
X172294147Y-113096900D01*
X172358297Y-113251772D01*
X172391000Y-113416184D01*
X172391000Y-113583816D01*
X172358297Y-113748228D01*
X172294147Y-113903100D01*
X172201015Y-114042481D01*
X172082481Y-114161015D01*
X171943100Y-114254147D01*
X171788228Y-114318297D01*
X171623816Y-114351000D01*
X171456184Y-114351000D01*
X171291772Y-114318297D01*
X171136900Y-114254147D01*
X170997519Y-114161015D01*
X170878985Y-114042481D01*
X170785853Y-113903100D01*
X170721703Y-113748228D01*
X170689000Y-113583816D01*
X170689000Y-113416184D01*
X170721703Y-113251772D01*
X170785853Y-113096900D01*
X170878985Y-112957519D01*
X170997519Y-112838985D01*
X171136900Y-112745853D01*
X171291772Y-112681703D01*
X171456184Y-112649000D01*
X171623816Y-112649000D01*
X171788228Y-112681703D01*
G37*
G36*
X181748228Y-112681703D02*
G01*
X181903100Y-112745853D01*
X182042481Y-112838985D01*
X182161015Y-112957519D01*
X182254147Y-113096900D01*
X182318297Y-113251772D01*
X182351000Y-113416184D01*
X182351000Y-113583816D01*
X182318297Y-113748228D01*
X182254147Y-113903100D01*
X182161015Y-114042481D01*
X182042481Y-114161015D01*
X181903100Y-114254147D01*
X181748228Y-114318297D01*
X181583816Y-114351000D01*
X181416184Y-114351000D01*
X181251772Y-114318297D01*
X181096900Y-114254147D01*
X180957519Y-114161015D01*
X180838985Y-114042481D01*
X180745853Y-113903100D01*
X180681703Y-113748228D01*
X180649000Y-113583816D01*
X180649000Y-113416184D01*
X180681703Y-113251772D01*
X180745853Y-113096900D01*
X180838985Y-112957519D01*
X180957519Y-112838985D01*
X181096900Y-112745853D01*
X181251772Y-112681703D01*
X181416184Y-112649000D01*
X181583816Y-112649000D01*
X181748228Y-112681703D01*
G37*
G36*
X169851000Y-114351000D02*
G01*
X168149000Y-114351000D01*
X168149000Y-112649000D01*
X169851000Y-112649000D01*
X169851000Y-114351000D01*
G37*
G36*
X186851000Y-114351000D02*
G01*
X185149000Y-114351000D01*
X185149000Y-112649000D01*
X186851000Y-112649000D01*
X186851000Y-114351000D01*
G37*
G36*
X188788228Y-112681703D02*
G01*
X188943100Y-112745853D01*
X189082481Y-112838985D01*
X189201015Y-112957519D01*
X189294147Y-113096900D01*
X189358297Y-113251772D01*
X189391000Y-113416184D01*
X189391000Y-113583816D01*
X189358297Y-113748228D01*
X189294147Y-113903100D01*
X189201015Y-114042481D01*
X189082481Y-114161015D01*
X188943100Y-114254147D01*
X188788228Y-114318297D01*
X188623816Y-114351000D01*
X188456184Y-114351000D01*
X188291772Y-114318297D01*
X188136900Y-114254147D01*
X187997519Y-114161015D01*
X187878985Y-114042481D01*
X187785853Y-113903100D01*
X187721703Y-113748228D01*
X187689000Y-113583816D01*
X187689000Y-113416184D01*
X187721703Y-113251772D01*
X187785853Y-113096900D01*
X187878985Y-112957519D01*
X187997519Y-112838985D01*
X188136900Y-112745853D01*
X188291772Y-112681703D01*
X188456184Y-112649000D01*
X188623816Y-112649000D01*
X188788228Y-112681703D01*
G37*
G36*
X122564549Y-111371116D02*
G01*
X122675734Y-111393232D01*
X122823850Y-111454584D01*
X122877734Y-111476903D01*
X122885203Y-111479997D01*
X123073720Y-111605960D01*
X123234040Y-111766280D01*
X123334203Y-111916185D01*
X123360004Y-111954799D01*
X123363739Y-111963816D01*
X123446768Y-112164266D01*
X123491000Y-112386636D01*
X123491000Y-112613364D01*
X123446768Y-112835734D01*
X123360003Y-113045203D01*
X123234040Y-113233720D01*
X123073720Y-113394040D01*
X122885203Y-113520003D01*
X122675734Y-113606768D01*
X122564549Y-113628884D01*
X122453365Y-113651000D01*
X122226635Y-113651000D01*
X122115451Y-113628884D01*
X122004266Y-113606768D01*
X121794797Y-113520003D01*
X121606280Y-113394040D01*
X121445960Y-113233720D01*
X121319997Y-113045203D01*
X121233232Y-112835734D01*
X121189000Y-112613364D01*
X121189000Y-112386636D01*
X121233232Y-112164266D01*
X121316261Y-111963816D01*
X121319996Y-111954799D01*
X121345797Y-111916185D01*
X121445960Y-111766280D01*
X121606280Y-111605960D01*
X121794797Y-111479997D01*
X121802267Y-111476903D01*
X121856150Y-111454584D01*
X122004266Y-111393232D01*
X122115451Y-111371116D01*
X122226635Y-111349000D01*
X122453365Y-111349000D01*
X122564549Y-111371116D01*
G37*
G36*
X133651000Y-113651000D02*
G01*
X131349000Y-113651000D01*
X131349000Y-111349000D01*
X133651000Y-111349000D01*
X133651000Y-113651000D01*
G37*
G36*
X160368228Y-111181703D02*
G01*
X160523100Y-111245853D01*
X160662481Y-111338985D01*
X160781015Y-111457519D01*
X160874147Y-111596900D01*
X160938297Y-111751772D01*
X160971000Y-111916184D01*
X160971000Y-112083816D01*
X160938297Y-112248228D01*
X160874147Y-112403100D01*
X160781015Y-112542481D01*
X160662481Y-112661015D01*
X160523100Y-112754147D01*
X160368228Y-112818297D01*
X160203816Y-112851000D01*
X160036184Y-112851000D01*
X159871772Y-112818297D01*
X159716900Y-112754147D01*
X159577519Y-112661015D01*
X159458985Y-112542481D01*
X159365853Y-112403100D01*
X159301703Y-112248228D01*
X159269000Y-112083816D01*
X159269000Y-111916184D01*
X159301703Y-111751772D01*
X159365853Y-111596900D01*
X159458985Y-111457519D01*
X159577519Y-111338985D01*
X159716900Y-111245853D01*
X159871772Y-111181703D01*
X160036184Y-111149000D01*
X160203816Y-111149000D01*
X160368228Y-111181703D01*
G37*
G36*
X153351000Y-112851000D02*
G01*
X151649000Y-112851000D01*
X151649000Y-111149000D01*
X153351000Y-111149000D01*
X153351000Y-112851000D01*
G37*
G36*
X149248228Y-111061703D02*
G01*
X149403100Y-111125853D01*
X149542481Y-111218985D01*
X149661015Y-111337519D01*
X149754147Y-111476900D01*
X149818297Y-111631772D01*
X149851000Y-111796184D01*
X149851000Y-111963816D01*
X149818297Y-112128228D01*
X149754147Y-112283100D01*
X149661015Y-112422481D01*
X149542481Y-112541015D01*
X149403100Y-112634147D01*
X149248228Y-112698297D01*
X149083816Y-112731000D01*
X148916184Y-112731000D01*
X148751772Y-112698297D01*
X148596900Y-112634147D01*
X148457519Y-112541015D01*
X148338985Y-112422481D01*
X148245853Y-112283100D01*
X148181703Y-112128228D01*
X148149000Y-111963816D01*
X148149000Y-111796184D01*
X148181703Y-111631772D01*
X148245853Y-111476900D01*
X148338985Y-111337519D01*
X148457519Y-111218985D01*
X148596900Y-111125853D01*
X148751772Y-111061703D01*
X148916184Y-111029000D01*
X149083816Y-111029000D01*
X149248228Y-111061703D01*
G37*
G36*
X164748228Y-109061703D02*
G01*
X164903100Y-109125853D01*
X165042481Y-109218985D01*
X165161015Y-109337519D01*
X165254147Y-109476900D01*
X165318297Y-109631772D01*
X165351000Y-109796184D01*
X165351000Y-109963816D01*
X165318297Y-110128228D01*
X165254147Y-110283100D01*
X165161015Y-110422481D01*
X165042481Y-110541015D01*
X164903100Y-110634147D01*
X164748228Y-110698297D01*
X164583816Y-110731000D01*
X164416184Y-110731000D01*
X164251772Y-110698297D01*
X164096900Y-110634147D01*
X163957519Y-110541015D01*
X163838985Y-110422481D01*
X163745853Y-110283100D01*
X163681703Y-110128228D01*
X163649000Y-109963816D01*
X163649000Y-109796184D01*
X163681703Y-109631772D01*
X163745853Y-109476900D01*
X163838985Y-109337519D01*
X163957519Y-109218985D01*
X164096900Y-109125853D01*
X164251772Y-109061703D01*
X164416184Y-109029000D01*
X164583816Y-109029000D01*
X164748228Y-109061703D01*
G37*
G36*
X66864903Y-104797075D02*
G01*
X67092571Y-104891378D01*
X67297466Y-105028285D01*
X67471715Y-105202534D01*
X67605800Y-105403206D01*
X67608623Y-105407431D01*
X67702925Y-105635097D01*
X67751000Y-105876786D01*
X67751000Y-106123214D01*
X67705690Y-106351000D01*
X67702925Y-106364903D01*
X67608622Y-106592571D01*
X67471715Y-106797466D01*
X67297466Y-106971715D01*
X67092571Y-107108622D01*
X67092570Y-107108623D01*
X67092569Y-107108623D01*
X66864903Y-107202925D01*
X66623214Y-107251000D01*
X66376786Y-107251000D01*
X66135097Y-107202925D01*
X65907431Y-107108623D01*
X65907430Y-107108623D01*
X65907429Y-107108622D01*
X65702534Y-106971715D01*
X65528285Y-106797466D01*
X65391378Y-106592571D01*
X65297075Y-106364903D01*
X65294310Y-106351000D01*
X65249000Y-106123214D01*
X65249000Y-105876786D01*
X65297075Y-105635097D01*
X65391377Y-105407431D01*
X65394200Y-105403206D01*
X65528285Y-105202534D01*
X65702534Y-105028285D01*
X65907429Y-104891378D01*
X66135097Y-104797075D01*
X66376786Y-104749000D01*
X66623214Y-104749000D01*
X66864903Y-104797075D01*
G37*
G36*
X169248228Y-105061703D02*
G01*
X169403100Y-105125853D01*
X169542481Y-105218985D01*
X169661015Y-105337519D01*
X169754147Y-105476900D01*
X169818297Y-105631772D01*
X169851000Y-105796184D01*
X169851000Y-105963816D01*
X169818297Y-106128228D01*
X169754147Y-106283100D01*
X169661015Y-106422481D01*
X169542481Y-106541015D01*
X169403100Y-106634147D01*
X169248228Y-106698297D01*
X169083816Y-106731000D01*
X168916184Y-106731000D01*
X168751772Y-106698297D01*
X168596900Y-106634147D01*
X168457519Y-106541015D01*
X168338985Y-106422481D01*
X168245853Y-106283100D01*
X168181703Y-106128228D01*
X168149000Y-105963816D01*
X168149000Y-105796184D01*
X168181703Y-105631772D01*
X168245853Y-105476900D01*
X168338985Y-105337519D01*
X168457519Y-105218985D01*
X168596900Y-105125853D01*
X168751772Y-105061703D01*
X168916184Y-105029000D01*
X169083816Y-105029000D01*
X169248228Y-105061703D01*
G37*
G36*
X186248228Y-105061703D02*
G01*
X186403100Y-105125853D01*
X186542481Y-105218985D01*
X186661015Y-105337519D01*
X186754147Y-105476900D01*
X186818297Y-105631772D01*
X186851000Y-105796184D01*
X186851000Y-105963816D01*
X186818297Y-106128228D01*
X186754147Y-106283100D01*
X186661015Y-106422481D01*
X186542481Y-106541015D01*
X186403100Y-106634147D01*
X186248228Y-106698297D01*
X186083816Y-106731000D01*
X185916184Y-106731000D01*
X185751772Y-106698297D01*
X185596900Y-106634147D01*
X185457519Y-106541015D01*
X185338985Y-106422481D01*
X185245853Y-106283100D01*
X185181703Y-106128228D01*
X185149000Y-105963816D01*
X185149000Y-105796184D01*
X185181703Y-105631772D01*
X185245853Y-105476900D01*
X185338985Y-105337519D01*
X185457519Y-105218985D01*
X185596900Y-105125853D01*
X185751772Y-105061703D01*
X185916184Y-105029000D01*
X186083816Y-105029000D01*
X186248228Y-105061703D01*
G37*
G36*
X188788228Y-105061703D02*
G01*
X188943100Y-105125853D01*
X189082481Y-105218985D01*
X189201015Y-105337519D01*
X189294147Y-105476900D01*
X189358297Y-105631772D01*
X189391000Y-105796184D01*
X189391000Y-105963816D01*
X189358297Y-106128228D01*
X189294147Y-106283100D01*
X189201015Y-106422481D01*
X189082481Y-106541015D01*
X188943100Y-106634147D01*
X188788228Y-106698297D01*
X188623816Y-106731000D01*
X188456184Y-106731000D01*
X188291772Y-106698297D01*
X188136900Y-106634147D01*
X187997519Y-106541015D01*
X187878985Y-106422481D01*
X187785853Y-106283100D01*
X187721703Y-106128228D01*
X187689000Y-105963816D01*
X187689000Y-105796184D01*
X187721703Y-105631772D01*
X187785853Y-105476900D01*
X187878985Y-105337519D01*
X187997519Y-105218985D01*
X188136900Y-105125853D01*
X188291772Y-105061703D01*
X188456184Y-105029000D01*
X188623816Y-105029000D01*
X188788228Y-105061703D01*
G37*
G36*
X171788228Y-105061703D02*
G01*
X171943100Y-105125853D01*
X172082481Y-105218985D01*
X172201015Y-105337519D01*
X172294147Y-105476900D01*
X172358297Y-105631772D01*
X172391000Y-105796184D01*
X172391000Y-105963816D01*
X172358297Y-106128228D01*
X172294147Y-106283100D01*
X172201015Y-106422481D01*
X172082481Y-106541015D01*
X171943100Y-106634147D01*
X171788228Y-106698297D01*
X171623816Y-106731000D01*
X171456184Y-106731000D01*
X171291772Y-106698297D01*
X171136900Y-106634147D01*
X170997519Y-106541015D01*
X170878985Y-106422481D01*
X170785853Y-106283100D01*
X170721703Y-106128228D01*
X170689000Y-105963816D01*
X170689000Y-105796184D01*
X170721703Y-105631772D01*
X170785853Y-105476900D01*
X170878985Y-105337519D01*
X170997519Y-105218985D01*
X171136900Y-105125853D01*
X171291772Y-105061703D01*
X171456184Y-105029000D01*
X171623816Y-105029000D01*
X171788228Y-105061703D01*
G37*
G36*
X181748228Y-105061703D02*
G01*
X181903100Y-105125853D01*
X182042481Y-105218985D01*
X182161015Y-105337519D01*
X182254147Y-105476900D01*
X182318297Y-105631772D01*
X182351000Y-105796184D01*
X182351000Y-105963816D01*
X182318297Y-106128228D01*
X182254147Y-106283100D01*
X182161015Y-106422481D01*
X182042481Y-106541015D01*
X181903100Y-106634147D01*
X181748228Y-106698297D01*
X181583816Y-106731000D01*
X181416184Y-106731000D01*
X181251772Y-106698297D01*
X181096900Y-106634147D01*
X180957519Y-106541015D01*
X180838985Y-106422481D01*
X180745853Y-106283100D01*
X180681703Y-106128228D01*
X180649000Y-105963816D01*
X180649000Y-105796184D01*
X180681703Y-105631772D01*
X180745853Y-105476900D01*
X180838985Y-105337519D01*
X180957519Y-105218985D01*
X181096900Y-105125853D01*
X181251772Y-105061703D01*
X181416184Y-105029000D01*
X181583816Y-105029000D01*
X181748228Y-105061703D01*
G37*
G36*
X125116720Y-104463520D02*
G01*
X125305881Y-104520901D01*
X125480212Y-104614083D01*
X125633015Y-104739485D01*
X125758417Y-104892288D01*
X125793284Y-104957520D01*
X125851598Y-105066617D01*
X125851599Y-105066620D01*
X125908980Y-105255781D01*
X125923500Y-105403207D01*
X125923500Y-105596794D01*
X125908980Y-105744220D01*
X125851599Y-105933381D01*
X125758417Y-106107712D01*
X125633015Y-106260515D01*
X125480212Y-106385917D01*
X125411807Y-106422480D01*
X125305883Y-106479098D01*
X125305880Y-106479099D01*
X125116719Y-106536480D01*
X124920000Y-106555855D01*
X124723280Y-106536480D01*
X124534119Y-106479099D01*
X124359788Y-106385917D01*
X124206985Y-106260515D01*
X124081583Y-106107712D01*
X124004669Y-105963816D01*
X123988402Y-105933383D01*
X123946784Y-105796185D01*
X123931020Y-105744219D01*
X123916500Y-105596793D01*
X123916500Y-105403206D01*
X123931020Y-105255780D01*
X123988401Y-105066619D01*
X124081583Y-104892288D01*
X124206985Y-104739485D01*
X124359788Y-104614083D01*
X124534120Y-104520901D01*
X124723281Y-104463520D01*
X124920000Y-104444145D01*
X125116720Y-104463520D01*
G37*
G36*
X127656720Y-104463520D02*
G01*
X127845881Y-104520901D01*
X128020212Y-104614083D01*
X128173015Y-104739485D01*
X128298417Y-104892288D01*
X128333284Y-104957520D01*
X128391598Y-105066617D01*
X128391599Y-105066620D01*
X128448980Y-105255781D01*
X128463500Y-105403207D01*
X128463500Y-105596794D01*
X128448980Y-105744220D01*
X128391599Y-105933381D01*
X128298417Y-106107712D01*
X128173015Y-106260515D01*
X128020212Y-106385917D01*
X127951807Y-106422480D01*
X127845883Y-106479098D01*
X127845880Y-106479099D01*
X127656719Y-106536480D01*
X127460000Y-106555855D01*
X127263280Y-106536480D01*
X127074119Y-106479099D01*
X126899788Y-106385917D01*
X126746985Y-106260515D01*
X126621583Y-106107712D01*
X126544669Y-105963816D01*
X126528402Y-105933383D01*
X126486784Y-105796185D01*
X126471020Y-105744219D01*
X126456500Y-105596793D01*
X126456500Y-105403206D01*
X126471020Y-105255780D01*
X126528401Y-105066619D01*
X126621583Y-104892288D01*
X126746985Y-104739485D01*
X126899788Y-104614083D01*
X127074120Y-104520901D01*
X127263281Y-104463520D01*
X127460000Y-104444145D01*
X127656720Y-104463520D01*
G37*
G36*
X131003500Y-106551000D02*
G01*
X128996500Y-106551000D01*
X128996500Y-104449000D01*
X131003500Y-104449000D01*
X131003500Y-106551000D01*
G37*
G36*
X118248228Y-104681703D02*
G01*
X118403100Y-104745853D01*
X118542481Y-104838985D01*
X118661015Y-104957519D01*
X118754147Y-105096900D01*
X118818297Y-105251772D01*
X118851000Y-105416184D01*
X118851000Y-105583816D01*
X118818297Y-105748228D01*
X118754147Y-105903100D01*
X118661015Y-106042481D01*
X118542481Y-106161015D01*
X118403100Y-106254147D01*
X118248228Y-106318297D01*
X118083816Y-106351000D01*
X117916184Y-106351000D01*
X117751772Y-106318297D01*
X117596900Y-106254147D01*
X117457519Y-106161015D01*
X117338985Y-106042481D01*
X117245853Y-105903100D01*
X117181703Y-105748228D01*
X117149000Y-105583816D01*
X117149000Y-105416184D01*
X117181703Y-105251772D01*
X117245853Y-105096900D01*
X117338985Y-104957519D01*
X117457519Y-104838985D01*
X117596900Y-104745853D01*
X117751772Y-104681703D01*
X117916184Y-104649000D01*
X118083816Y-104649000D01*
X118248228Y-104681703D01*
G37*
G36*
X113248228Y-104681703D02*
G01*
X113403100Y-104745853D01*
X113542481Y-104838985D01*
X113661015Y-104957519D01*
X113754147Y-105096900D01*
X113818297Y-105251772D01*
X113851000Y-105416184D01*
X113851000Y-105583816D01*
X113818297Y-105748228D01*
X113754147Y-105903100D01*
X113661015Y-106042481D01*
X113542481Y-106161015D01*
X113403100Y-106254147D01*
X113248228Y-106318297D01*
X113083816Y-106351000D01*
X112916184Y-106351000D01*
X112751772Y-106318297D01*
X112596900Y-106254147D01*
X112457519Y-106161015D01*
X112338985Y-106042481D01*
X112245853Y-105903100D01*
X112181703Y-105748228D01*
X112149000Y-105583816D01*
X112149000Y-105416184D01*
X112181703Y-105251772D01*
X112245853Y-105096900D01*
X112338985Y-104957519D01*
X112457519Y-104838985D01*
X112596900Y-104745853D01*
X112751772Y-104681703D01*
X112916184Y-104649000D01*
X113083816Y-104649000D01*
X113248228Y-104681703D01*
G37*
G36*
X142748228Y-104681703D02*
G01*
X142903100Y-104745853D01*
X143042481Y-104838985D01*
X143161015Y-104957519D01*
X143254147Y-105096900D01*
X143318297Y-105251772D01*
X143351000Y-105416184D01*
X143351000Y-105583816D01*
X143318297Y-105748228D01*
X143254147Y-105903100D01*
X143161015Y-106042481D01*
X143042481Y-106161015D01*
X142903100Y-106254147D01*
X142748228Y-106318297D01*
X142583816Y-106351000D01*
X142416184Y-106351000D01*
X142251772Y-106318297D01*
X142096900Y-106254147D01*
X141957519Y-106161015D01*
X141838985Y-106042481D01*
X141745853Y-105903100D01*
X141681703Y-105748228D01*
X141649000Y-105583816D01*
X141649000Y-105416184D01*
X141681703Y-105251772D01*
X141745853Y-105096900D01*
X141838985Y-104957519D01*
X141957519Y-104838985D01*
X142096900Y-104745853D01*
X142251772Y-104681703D01*
X142416184Y-104649000D01*
X142583816Y-104649000D01*
X142748228Y-104681703D01*
G37*
G36*
X135128228Y-104681703D02*
G01*
X135283100Y-104745853D01*
X135422481Y-104838985D01*
X135541015Y-104957519D01*
X135634147Y-105096900D01*
X135698297Y-105251772D01*
X135731000Y-105416184D01*
X135731000Y-105583816D01*
X135698297Y-105748228D01*
X135634147Y-105903100D01*
X135541015Y-106042481D01*
X135422481Y-106161015D01*
X135283100Y-106254147D01*
X135128228Y-106318297D01*
X134963816Y-106351000D01*
X134796184Y-106351000D01*
X134631772Y-106318297D01*
X134476900Y-106254147D01*
X134337519Y-106161015D01*
X134218985Y-106042481D01*
X134125853Y-105903100D01*
X134061703Y-105748228D01*
X134029000Y-105583816D01*
X134029000Y-105416184D01*
X134061703Y-105251772D01*
X134125853Y-105096900D01*
X134218985Y-104957519D01*
X134337519Y-104838985D01*
X134476900Y-104745853D01*
X134631772Y-104681703D01*
X134796184Y-104649000D01*
X134963816Y-104649000D01*
X135128228Y-104681703D01*
G37*
G36*
X155128228Y-102681703D02*
G01*
X155283100Y-102745853D01*
X155422481Y-102838985D01*
X155541015Y-102957519D01*
X155634147Y-103096900D01*
X155698297Y-103251772D01*
X155731000Y-103416184D01*
X155731000Y-103583816D01*
X155698297Y-103748228D01*
X155634147Y-103903100D01*
X155541015Y-104042481D01*
X155422481Y-104161015D01*
X155283100Y-104254147D01*
X155128228Y-104318297D01*
X154963816Y-104351000D01*
X154796184Y-104351000D01*
X154631772Y-104318297D01*
X154476900Y-104254147D01*
X154337519Y-104161015D01*
X154218985Y-104042481D01*
X154125853Y-103903100D01*
X154061703Y-103748228D01*
X154029000Y-103583816D01*
X154029000Y-103416184D01*
X154061703Y-103251772D01*
X154125853Y-103096900D01*
X154218985Y-102957519D01*
X154337519Y-102838985D01*
X154476900Y-102745853D01*
X154631772Y-102681703D01*
X154796184Y-102649000D01*
X154963816Y-102649000D01*
X155128228Y-102681703D01*
G37*
G36*
X162748228Y-102681703D02*
G01*
X162903100Y-102745853D01*
X163042481Y-102838985D01*
X163161015Y-102957519D01*
X163254147Y-103096900D01*
X163318297Y-103251772D01*
X163351000Y-103416184D01*
X163351000Y-103583816D01*
X163318297Y-103748228D01*
X163254147Y-103903100D01*
X163161015Y-104042481D01*
X163042481Y-104161015D01*
X162903100Y-104254147D01*
X162748228Y-104318297D01*
X162583816Y-104351000D01*
X162416184Y-104351000D01*
X162251772Y-104318297D01*
X162096900Y-104254147D01*
X161957519Y-104161015D01*
X161838985Y-104042481D01*
X161745853Y-103903100D01*
X161681703Y-103748228D01*
X161649000Y-103583816D01*
X161649000Y-103416184D01*
X161681703Y-103251772D01*
X161745853Y-103096900D01*
X161838985Y-102957519D01*
X161957519Y-102838985D01*
X162096900Y-102745853D01*
X162251772Y-102681703D01*
X162416184Y-102649000D01*
X162583816Y-102649000D01*
X162748228Y-102681703D01*
G37*
G36*
X182748228Y-100681703D02*
G01*
X182903100Y-100745853D01*
X183042481Y-100838985D01*
X183161015Y-100957519D01*
X183254147Y-101096900D01*
X183318297Y-101251772D01*
X183351000Y-101416184D01*
X183351000Y-101583816D01*
X183318297Y-101748228D01*
X183254147Y-101903100D01*
X183161015Y-102042481D01*
X183042481Y-102161015D01*
X182903100Y-102254147D01*
X182748228Y-102318297D01*
X182583816Y-102351000D01*
X182416184Y-102351000D01*
X182251772Y-102318297D01*
X182096900Y-102254147D01*
X181957519Y-102161015D01*
X181838985Y-102042481D01*
X181745853Y-101903100D01*
X181681703Y-101748228D01*
X181649000Y-101583816D01*
X181649000Y-101416184D01*
X181681703Y-101251772D01*
X181745853Y-101096900D01*
X181838985Y-100957519D01*
X181957519Y-100838985D01*
X182096900Y-100745853D01*
X182251772Y-100681703D01*
X182416184Y-100649000D01*
X182583816Y-100649000D01*
X182748228Y-100681703D01*
G37*
G36*
X190368228Y-100681703D02*
G01*
X190523100Y-100745853D01*
X190662481Y-100838985D01*
X190781015Y-100957519D01*
X190874147Y-101096900D01*
X190938297Y-101251772D01*
X190971000Y-101416184D01*
X190971000Y-101583816D01*
X190938297Y-101748228D01*
X190874147Y-101903100D01*
X190781015Y-102042481D01*
X190662481Y-102161015D01*
X190523100Y-102254147D01*
X190368228Y-102318297D01*
X190203816Y-102351000D01*
X190036184Y-102351000D01*
X189871772Y-102318297D01*
X189716900Y-102254147D01*
X189577519Y-102161015D01*
X189458985Y-102042481D01*
X189365853Y-101903100D01*
X189301703Y-101748228D01*
X189269000Y-101583816D01*
X189269000Y-101416184D01*
X189301703Y-101251772D01*
X189365853Y-101096900D01*
X189458985Y-100957519D01*
X189577519Y-100838985D01*
X189716900Y-100745853D01*
X189871772Y-100681703D01*
X190036184Y-100649000D01*
X190203816Y-100649000D01*
X190368228Y-100681703D01*
G37*
G36*
X155806564Y-98489389D02*
G01*
X155997833Y-98568615D01*
X155997835Y-98568616D01*
X156118138Y-98649000D01*
X156169973Y-98683635D01*
X156316365Y-98830027D01*
X156431385Y-99002167D01*
X156510611Y-99193436D01*
X156551000Y-99396484D01*
X156551000Y-99603516D01*
X156510611Y-99806564D01*
X156431385Y-99997833D01*
X156431384Y-99997835D01*
X156316365Y-100169973D01*
X156169973Y-100316365D01*
X155997835Y-100431384D01*
X155997834Y-100431385D01*
X155997833Y-100431385D01*
X155806564Y-100510611D01*
X155603516Y-100551000D01*
X155396484Y-100551000D01*
X155193436Y-100510611D01*
X155002167Y-100431385D01*
X155002166Y-100431385D01*
X155002165Y-100431384D01*
X154830027Y-100316365D01*
X154683635Y-100169973D01*
X154568616Y-99997835D01*
X154568615Y-99997833D01*
X154489389Y-99806564D01*
X154449000Y-99603516D01*
X154449000Y-99396484D01*
X154489389Y-99193436D01*
X154568615Y-99002167D01*
X154683635Y-98830027D01*
X154830027Y-98683635D01*
X154881862Y-98649000D01*
X155002165Y-98568616D01*
X155002167Y-98568615D01*
X155193436Y-98489389D01*
X155396484Y-98449000D01*
X155603516Y-98449000D01*
X155806564Y-98489389D01*
G37*
G36*
X162306564Y-98489389D02*
G01*
X162497833Y-98568615D01*
X162497835Y-98568616D01*
X162618138Y-98649000D01*
X162669973Y-98683635D01*
X162816365Y-98830027D01*
X162931385Y-99002167D01*
X163010611Y-99193436D01*
X163051000Y-99396484D01*
X163051000Y-99603516D01*
X163010611Y-99806564D01*
X162931385Y-99997833D01*
X162931384Y-99997835D01*
X162816365Y-100169973D01*
X162669973Y-100316365D01*
X162497835Y-100431384D01*
X162497834Y-100431385D01*
X162497833Y-100431385D01*
X162306564Y-100510611D01*
X162103516Y-100551000D01*
X161896484Y-100551000D01*
X161693436Y-100510611D01*
X161502167Y-100431385D01*
X161502166Y-100431385D01*
X161502165Y-100431384D01*
X161330027Y-100316365D01*
X161183635Y-100169973D01*
X161068616Y-99997835D01*
X161068615Y-99997833D01*
X160989389Y-99806564D01*
X160949000Y-99603516D01*
X160949000Y-99396484D01*
X160989389Y-99193436D01*
X161068615Y-99002167D01*
X161183635Y-98830027D01*
X161330027Y-98683635D01*
X161381862Y-98649000D01*
X161502165Y-98568616D01*
X161502167Y-98568615D01*
X161693436Y-98489389D01*
X161896484Y-98449000D01*
X162103516Y-98449000D01*
X162306564Y-98489389D01*
G37*
G36*
X144128228Y-98681703D02*
G01*
X144283100Y-98745853D01*
X144422481Y-98838985D01*
X144541015Y-98957519D01*
X144634147Y-99096900D01*
X144698297Y-99251772D01*
X144731000Y-99416184D01*
X144731000Y-99583816D01*
X144698297Y-99748228D01*
X144634147Y-99903100D01*
X144541015Y-100042481D01*
X144422481Y-100161015D01*
X144283100Y-100254147D01*
X144128228Y-100318297D01*
X143963816Y-100351000D01*
X143796184Y-100351000D01*
X143631772Y-100318297D01*
X143476900Y-100254147D01*
X143337519Y-100161015D01*
X143218985Y-100042481D01*
X143125853Y-99903100D01*
X143061703Y-99748228D01*
X143029000Y-99583816D01*
X143029000Y-99416184D01*
X143061703Y-99251772D01*
X143125853Y-99096900D01*
X143218985Y-98957519D01*
X143337519Y-98838985D01*
X143476900Y-98745853D01*
X143631772Y-98681703D01*
X143796184Y-98649000D01*
X143963816Y-98649000D01*
X144128228Y-98681703D01*
G37*
G36*
X152351000Y-100351000D02*
G01*
X150649000Y-100351000D01*
X150649000Y-98649000D01*
X152351000Y-98649000D01*
X152351000Y-100351000D01*
G37*
G36*
X139113512Y-98223927D02*
G01*
X139262812Y-98253624D01*
X139426784Y-98321544D01*
X139574354Y-98420147D01*
X139699853Y-98545646D01*
X139798456Y-98693216D01*
X139866376Y-98857188D01*
X139901000Y-99031259D01*
X139901000Y-99208741D01*
X139866376Y-99382812D01*
X139798456Y-99546784D01*
X139699853Y-99694354D01*
X139574354Y-99819853D01*
X139426784Y-99918456D01*
X139262812Y-99986376D01*
X139113512Y-100016073D01*
X139088742Y-100021000D01*
X138911258Y-100021000D01*
X138886488Y-100016073D01*
X138737188Y-99986376D01*
X138573216Y-99918456D01*
X138425646Y-99819853D01*
X138300147Y-99694354D01*
X138201544Y-99546784D01*
X138133624Y-99382812D01*
X138099000Y-99208741D01*
X138099000Y-99031259D01*
X138133624Y-98857188D01*
X138201544Y-98693216D01*
X138300147Y-98545646D01*
X138425646Y-98420147D01*
X138573216Y-98321544D01*
X138737188Y-98253624D01*
X138886488Y-98223927D01*
X138911258Y-98219000D01*
X139088742Y-98219000D01*
X139113512Y-98223927D01*
G37*
G36*
X186368228Y-96681703D02*
G01*
X186523100Y-96745853D01*
X186662481Y-96838985D01*
X186781015Y-96957519D01*
X186874147Y-97096900D01*
X186938297Y-97251772D01*
X186971000Y-97416184D01*
X186971000Y-97583816D01*
X186938297Y-97748228D01*
X186874147Y-97903100D01*
X186781015Y-98042481D01*
X186662481Y-98161015D01*
X186523100Y-98254147D01*
X186368228Y-98318297D01*
X186203816Y-98351000D01*
X186036184Y-98351000D01*
X185871772Y-98318297D01*
X185716900Y-98254147D01*
X185577519Y-98161015D01*
X185458985Y-98042481D01*
X185365853Y-97903100D01*
X185301703Y-97748228D01*
X185269000Y-97583816D01*
X185269000Y-97416184D01*
X185301703Y-97251772D01*
X185365853Y-97096900D01*
X185458985Y-96957519D01*
X185577519Y-96838985D01*
X185716900Y-96745853D01*
X185871772Y-96681703D01*
X186036184Y-96649000D01*
X186203816Y-96649000D01*
X186368228Y-96681703D01*
G37*
G36*
X178748228Y-96681703D02*
G01*
X178903100Y-96745853D01*
X179042481Y-96838985D01*
X179161015Y-96957519D01*
X179254147Y-97096900D01*
X179318297Y-97251772D01*
X179351000Y-97416184D01*
X179351000Y-97583816D01*
X179318297Y-97748228D01*
X179254147Y-97903100D01*
X179161015Y-98042481D01*
X179042481Y-98161015D01*
X178903100Y-98254147D01*
X178748228Y-98318297D01*
X178583816Y-98351000D01*
X178416184Y-98351000D01*
X178251772Y-98318297D01*
X178096900Y-98254147D01*
X177957519Y-98161015D01*
X177838985Y-98042481D01*
X177745853Y-97903100D01*
X177681703Y-97748228D01*
X177649000Y-97583816D01*
X177649000Y-97416184D01*
X177681703Y-97251772D01*
X177745853Y-97096900D01*
X177838985Y-96957519D01*
X177957519Y-96838985D01*
X178096900Y-96745853D01*
X178251772Y-96681703D01*
X178416184Y-96649000D01*
X178583816Y-96649000D01*
X178748228Y-96681703D01*
G37*
G36*
X144128228Y-96141703D02*
G01*
X144283100Y-96205853D01*
X144422481Y-96298985D01*
X144541015Y-96417519D01*
X144634147Y-96556900D01*
X144698297Y-96711772D01*
X144731000Y-96876184D01*
X144731000Y-97043816D01*
X144698297Y-97208228D01*
X144634147Y-97363100D01*
X144541015Y-97502481D01*
X144422481Y-97621015D01*
X144283100Y-97714147D01*
X144128228Y-97778297D01*
X143963816Y-97811000D01*
X143796184Y-97811000D01*
X143631772Y-97778297D01*
X143476900Y-97714147D01*
X143337519Y-97621015D01*
X143218985Y-97502481D01*
X143125853Y-97363100D01*
X143061703Y-97208228D01*
X143029000Y-97043816D01*
X143029000Y-96876184D01*
X143061703Y-96711772D01*
X143125853Y-96556900D01*
X143218985Y-96417519D01*
X143337519Y-96298985D01*
X143476900Y-96205853D01*
X143631772Y-96141703D01*
X143796184Y-96109000D01*
X143963816Y-96109000D01*
X144128228Y-96141703D01*
G37*
G36*
X151748228Y-96141703D02*
G01*
X151903100Y-96205853D01*
X152042481Y-96298985D01*
X152161015Y-96417519D01*
X152254147Y-96556900D01*
X152318297Y-96711772D01*
X152351000Y-96876184D01*
X152351000Y-97043816D01*
X152318297Y-97208228D01*
X152254147Y-97363100D01*
X152161015Y-97502481D01*
X152042481Y-97621015D01*
X151903100Y-97714147D01*
X151748228Y-97778297D01*
X151583816Y-97811000D01*
X151416184Y-97811000D01*
X151251772Y-97778297D01*
X151096900Y-97714147D01*
X150957519Y-97621015D01*
X150838985Y-97502481D01*
X150745853Y-97363100D01*
X150681703Y-97208228D01*
X150649000Y-97043816D01*
X150649000Y-96876184D01*
X150681703Y-96711772D01*
X150745853Y-96556900D01*
X150838985Y-96417519D01*
X150957519Y-96298985D01*
X151096900Y-96205853D01*
X151251772Y-96141703D01*
X151416184Y-96109000D01*
X151583816Y-96109000D01*
X151748228Y-96141703D01*
G37*
G36*
X139113512Y-95683927D02*
G01*
X139262812Y-95713624D01*
X139426784Y-95781544D01*
X139574354Y-95880147D01*
X139699853Y-96005646D01*
X139798456Y-96153216D01*
X139866376Y-96317188D01*
X139901000Y-96491259D01*
X139901000Y-96668741D01*
X139866376Y-96842812D01*
X139798456Y-97006784D01*
X139699853Y-97154354D01*
X139574354Y-97279853D01*
X139426784Y-97378456D01*
X139262812Y-97446376D01*
X139113512Y-97476073D01*
X139088742Y-97481000D01*
X138911258Y-97481000D01*
X138886488Y-97476073D01*
X138737188Y-97446376D01*
X138573216Y-97378456D01*
X138425646Y-97279853D01*
X138300147Y-97154354D01*
X138201544Y-97006784D01*
X138133624Y-96842812D01*
X138099000Y-96668741D01*
X138099000Y-96491259D01*
X138133624Y-96317188D01*
X138201544Y-96153216D01*
X138300147Y-96005646D01*
X138425646Y-95880147D01*
X138573216Y-95781544D01*
X138737188Y-95713624D01*
X138886488Y-95683927D01*
X138911258Y-95679000D01*
X139088742Y-95679000D01*
X139113512Y-95683927D01*
G37*
G36*
X116302585Y-93728802D02*
G01*
X116452410Y-93758604D01*
X116734674Y-93875521D01*
X116988705Y-94045259D01*
X117204741Y-94261295D01*
X117374479Y-94515326D01*
X117491396Y-94797590D01*
X117496470Y-94823100D01*
X117551000Y-95097239D01*
X117551000Y-95402761D01*
X117521198Y-95552585D01*
X117491396Y-95702410D01*
X117374479Y-95984674D01*
X117204741Y-96238705D01*
X116988705Y-96454741D01*
X116734674Y-96624479D01*
X116452410Y-96741396D01*
X116302585Y-96771198D01*
X116152761Y-96801000D01*
X115847239Y-96801000D01*
X115697415Y-96771198D01*
X115547590Y-96741396D01*
X115265326Y-96624479D01*
X115011295Y-96454741D01*
X114795259Y-96238705D01*
X114625521Y-95984674D01*
X114508604Y-95702410D01*
X114478802Y-95552585D01*
X114449000Y-95402761D01*
X114449000Y-95097239D01*
X114503530Y-94823100D01*
X114508604Y-94797590D01*
X114625521Y-94515326D01*
X114795259Y-94261295D01*
X115011295Y-94045259D01*
X115265326Y-93875521D01*
X115547590Y-93758604D01*
X115697415Y-93728802D01*
X115847239Y-93699000D01*
X116152761Y-93699000D01*
X116302585Y-93728802D01*
G37*
G36*
X77802585Y-93728802D02*
G01*
X77952410Y-93758604D01*
X78234674Y-93875521D01*
X78488705Y-94045259D01*
X78704741Y-94261295D01*
X78874479Y-94515326D01*
X78991396Y-94797590D01*
X78996470Y-94823100D01*
X79051000Y-95097239D01*
X79051000Y-95402761D01*
X79021198Y-95552585D01*
X78991396Y-95702410D01*
X78874479Y-95984674D01*
X78704741Y-96238705D01*
X78488705Y-96454741D01*
X78234674Y-96624479D01*
X77952410Y-96741396D01*
X77802585Y-96771198D01*
X77652761Y-96801000D01*
X77347239Y-96801000D01*
X77197415Y-96771198D01*
X77047590Y-96741396D01*
X76765326Y-96624479D01*
X76511295Y-96454741D01*
X76295259Y-96238705D01*
X76125521Y-95984674D01*
X76008604Y-95702410D01*
X75978802Y-95552585D01*
X75949000Y-95402761D01*
X75949000Y-95097239D01*
X76003530Y-94823100D01*
X76008604Y-94797590D01*
X76125521Y-94515326D01*
X76295259Y-94261295D01*
X76511295Y-94045259D01*
X76765326Y-93875521D01*
X77047590Y-93758604D01*
X77197415Y-93728802D01*
X77347239Y-93699000D01*
X77652761Y-93699000D01*
X77802585Y-93728802D01*
G37*
G36*
X162306564Y-93989389D02*
G01*
X162497833Y-94068615D01*
X162497835Y-94068616D01*
X162587818Y-94128741D01*
X162669973Y-94183635D01*
X162816365Y-94330027D01*
X162931385Y-94502167D01*
X163010611Y-94693436D01*
X163051000Y-94896484D01*
X163051000Y-95103516D01*
X163010611Y-95306564D01*
X162970765Y-95402760D01*
X162931384Y-95497835D01*
X162816365Y-95669973D01*
X162669973Y-95816365D01*
X162497835Y-95931384D01*
X162497834Y-95931385D01*
X162497833Y-95931385D01*
X162306564Y-96010611D01*
X162103516Y-96051000D01*
X161896484Y-96051000D01*
X161693436Y-96010611D01*
X161502167Y-95931385D01*
X161502166Y-95931385D01*
X161502165Y-95931384D01*
X161330027Y-95816365D01*
X161183635Y-95669973D01*
X161068616Y-95497835D01*
X161029235Y-95402760D01*
X160989389Y-95306564D01*
X160949000Y-95103516D01*
X160949000Y-94896484D01*
X160989389Y-94693436D01*
X161068615Y-94502167D01*
X161183635Y-94330027D01*
X161330027Y-94183635D01*
X161412182Y-94128741D01*
X161502165Y-94068616D01*
X161502167Y-94068615D01*
X161693436Y-93989389D01*
X161896484Y-93949000D01*
X162103516Y-93949000D01*
X162306564Y-93989389D01*
G37*
G36*
X155806564Y-93989389D02*
G01*
X155997833Y-94068615D01*
X155997835Y-94068616D01*
X156087818Y-94128741D01*
X156169973Y-94183635D01*
X156316365Y-94330027D01*
X156431385Y-94502167D01*
X156510611Y-94693436D01*
X156551000Y-94896484D01*
X156551000Y-95103516D01*
X156510611Y-95306564D01*
X156470765Y-95402760D01*
X156431384Y-95497835D01*
X156316365Y-95669973D01*
X156169973Y-95816365D01*
X155997835Y-95931384D01*
X155997834Y-95931385D01*
X155997833Y-95931385D01*
X155806564Y-96010611D01*
X155603516Y-96051000D01*
X155396484Y-96051000D01*
X155193436Y-96010611D01*
X155002167Y-95931385D01*
X155002166Y-95931385D01*
X155002165Y-95931384D01*
X154830027Y-95816365D01*
X154683635Y-95669973D01*
X154568616Y-95497835D01*
X154529235Y-95402760D01*
X154489389Y-95306564D01*
X154449000Y-95103516D01*
X154449000Y-94896484D01*
X154489389Y-94693436D01*
X154568615Y-94502167D01*
X154683635Y-94330027D01*
X154830027Y-94183635D01*
X154912182Y-94128741D01*
X155002165Y-94068616D01*
X155002167Y-94068615D01*
X155193436Y-93989389D01*
X155396484Y-93949000D01*
X155603516Y-93949000D01*
X155806564Y-93989389D01*
G37*
G36*
X144128228Y-93601703D02*
G01*
X144283100Y-93665853D01*
X144422481Y-93758985D01*
X144541015Y-93877519D01*
X144634147Y-94016900D01*
X144698297Y-94171772D01*
X144731000Y-94336184D01*
X144731000Y-94503816D01*
X144698297Y-94668228D01*
X144634147Y-94823100D01*
X144541015Y-94962481D01*
X144422481Y-95081015D01*
X144283100Y-95174147D01*
X144128228Y-95238297D01*
X143963816Y-95271000D01*
X143796184Y-95271000D01*
X143631772Y-95238297D01*
X143476900Y-95174147D01*
X143337519Y-95081015D01*
X143218985Y-94962481D01*
X143125853Y-94823100D01*
X143061703Y-94668228D01*
X143029000Y-94503816D01*
X143029000Y-94336184D01*
X143061703Y-94171772D01*
X143125853Y-94016900D01*
X143218985Y-93877519D01*
X143337519Y-93758985D01*
X143476900Y-93665853D01*
X143631772Y-93601703D01*
X143796184Y-93569000D01*
X143963816Y-93569000D01*
X144128228Y-93601703D01*
G37*
G36*
X151748228Y-93601703D02*
G01*
X151903100Y-93665853D01*
X152042481Y-93758985D01*
X152161015Y-93877519D01*
X152254147Y-94016900D01*
X152318297Y-94171772D01*
X152351000Y-94336184D01*
X152351000Y-94503816D01*
X152318297Y-94668228D01*
X152254147Y-94823100D01*
X152161015Y-94962481D01*
X152042481Y-95081015D01*
X151903100Y-95174147D01*
X151748228Y-95238297D01*
X151583816Y-95271000D01*
X151416184Y-95271000D01*
X151251772Y-95238297D01*
X151096900Y-95174147D01*
X150957519Y-95081015D01*
X150838985Y-94962481D01*
X150745853Y-94823100D01*
X150681703Y-94668228D01*
X150649000Y-94503816D01*
X150649000Y-94336184D01*
X150681703Y-94171772D01*
X150745853Y-94016900D01*
X150838985Y-93877519D01*
X150957519Y-93758985D01*
X151096900Y-93665853D01*
X151251772Y-93601703D01*
X151416184Y-93569000D01*
X151583816Y-93569000D01*
X151748228Y-93601703D01*
G37*
G36*
X171594508Y-93340147D02*
G01*
X171762812Y-93373624D01*
X171926784Y-93441544D01*
X172074354Y-93540147D01*
X172199853Y-93665646D01*
X172298456Y-93813216D01*
X172366376Y-93977188D01*
X172401000Y-94151259D01*
X172401000Y-94328741D01*
X172366376Y-94502812D01*
X172298456Y-94666784D01*
X172199853Y-94814354D01*
X172074354Y-94939853D01*
X171926784Y-95038456D01*
X171762812Y-95106376D01*
X171613512Y-95136073D01*
X171588742Y-95141000D01*
X171411258Y-95141000D01*
X171386488Y-95136073D01*
X171237188Y-95106376D01*
X171073216Y-95038456D01*
X170925646Y-94939853D01*
X170800147Y-94814354D01*
X170701544Y-94666784D01*
X170633624Y-94502812D01*
X170599000Y-94328741D01*
X170599000Y-94151259D01*
X170633624Y-93977188D01*
X170701544Y-93813216D01*
X170800147Y-93665646D01*
X170925646Y-93540147D01*
X171073216Y-93441544D01*
X171237188Y-93373624D01*
X171405492Y-93340147D01*
X171411258Y-93339000D01*
X171588742Y-93339000D01*
X171594508Y-93340147D01*
G37*
G36*
X139113512Y-93143927D02*
G01*
X139262812Y-93173624D01*
X139426784Y-93241544D01*
X139574354Y-93340147D01*
X139699853Y-93465646D01*
X139798456Y-93613216D01*
X139866376Y-93777188D01*
X139901000Y-93951259D01*
X139901000Y-94128741D01*
X139866376Y-94302812D01*
X139798456Y-94466784D01*
X139699853Y-94614354D01*
X139574354Y-94739853D01*
X139426784Y-94838456D01*
X139262812Y-94906376D01*
X139113512Y-94936073D01*
X139088742Y-94941000D01*
X138911258Y-94941000D01*
X138886488Y-94936073D01*
X138737188Y-94906376D01*
X138573216Y-94838456D01*
X138425646Y-94739853D01*
X138300147Y-94614354D01*
X138201544Y-94466784D01*
X138133624Y-94302812D01*
X138099000Y-94128741D01*
X138099000Y-93951259D01*
X138133624Y-93777188D01*
X138201544Y-93613216D01*
X138300147Y-93465646D01*
X138425646Y-93340147D01*
X138573216Y-93241544D01*
X138737188Y-93173624D01*
X138886488Y-93143927D01*
X138911258Y-93139000D01*
X139088742Y-93139000D01*
X139113512Y-93143927D01*
G37*
G36*
X151748228Y-91061703D02*
G01*
X151903100Y-91125853D01*
X152042481Y-91218985D01*
X152161015Y-91337519D01*
X152254147Y-91476900D01*
X152318297Y-91631772D01*
X152351000Y-91796184D01*
X152351000Y-91963816D01*
X152318297Y-92128228D01*
X152254147Y-92283100D01*
X152161015Y-92422481D01*
X152042481Y-92541015D01*
X151903100Y-92634147D01*
X151748228Y-92698297D01*
X151583816Y-92731000D01*
X151416184Y-92731000D01*
X151251772Y-92698297D01*
X151096900Y-92634147D01*
X150957519Y-92541015D01*
X150838985Y-92422481D01*
X150745853Y-92283100D01*
X150681703Y-92128228D01*
X150649000Y-91963816D01*
X150649000Y-91796184D01*
X150681703Y-91631772D01*
X150745853Y-91476900D01*
X150838985Y-91337519D01*
X150957519Y-91218985D01*
X151096900Y-91125853D01*
X151251772Y-91061703D01*
X151416184Y-91029000D01*
X151583816Y-91029000D01*
X151748228Y-91061703D01*
G37*
G36*
X144128228Y-91061703D02*
G01*
X144283100Y-91125853D01*
X144422481Y-91218985D01*
X144541015Y-91337519D01*
X144634147Y-91476900D01*
X144698297Y-91631772D01*
X144731000Y-91796184D01*
X144731000Y-91963816D01*
X144698297Y-92128228D01*
X144634147Y-92283100D01*
X144541015Y-92422481D01*
X144422481Y-92541015D01*
X144283100Y-92634147D01*
X144128228Y-92698297D01*
X143963816Y-92731000D01*
X143796184Y-92731000D01*
X143631772Y-92698297D01*
X143476900Y-92634147D01*
X143337519Y-92541015D01*
X143218985Y-92422481D01*
X143125853Y-92283100D01*
X143061703Y-92128228D01*
X143029000Y-91963816D01*
X143029000Y-91796184D01*
X143061703Y-91631772D01*
X143125853Y-91476900D01*
X143218985Y-91337519D01*
X143337519Y-91218985D01*
X143476900Y-91125853D01*
X143631772Y-91061703D01*
X143796184Y-91029000D01*
X143963816Y-91029000D01*
X144128228Y-91061703D01*
G37*
G36*
X171613512Y-90803927D02*
G01*
X171762812Y-90833624D01*
X171926784Y-90901544D01*
X172074354Y-91000147D01*
X172199853Y-91125646D01*
X172298456Y-91273216D01*
X172366376Y-91437188D01*
X172401000Y-91611259D01*
X172401000Y-91788741D01*
X172366376Y-91962812D01*
X172298456Y-92126784D01*
X172199853Y-92274354D01*
X172074354Y-92399853D01*
X171926784Y-92498456D01*
X171762812Y-92566376D01*
X171613512Y-92596073D01*
X171588742Y-92601000D01*
X171411258Y-92601000D01*
X171386488Y-92596073D01*
X171237188Y-92566376D01*
X171073216Y-92498456D01*
X170925646Y-92399853D01*
X170800147Y-92274354D01*
X170701544Y-92126784D01*
X170633624Y-91962812D01*
X170599000Y-91788741D01*
X170599000Y-91611259D01*
X170633624Y-91437188D01*
X170701544Y-91273216D01*
X170800147Y-91125646D01*
X170925646Y-91000147D01*
X171073216Y-90901544D01*
X171237188Y-90833624D01*
X171386488Y-90803927D01*
X171411258Y-90799000D01*
X171588742Y-90799000D01*
X171613512Y-90803927D01*
G37*
G36*
X139901000Y-92401000D02*
G01*
X138099000Y-92401000D01*
X138099000Y-90599000D01*
X139901000Y-90599000D01*
X139901000Y-92401000D01*
G37*
G36*
X125748228Y-90681703D02*
G01*
X125903100Y-90745853D01*
X126042481Y-90838985D01*
X126161015Y-90957519D01*
X126254147Y-91096900D01*
X126318297Y-91251772D01*
X126351000Y-91416184D01*
X126351000Y-91583816D01*
X126318297Y-91748228D01*
X126254147Y-91903100D01*
X126161015Y-92042481D01*
X126042481Y-92161015D01*
X125903100Y-92254147D01*
X125748228Y-92318297D01*
X125583816Y-92351000D01*
X125416184Y-92351000D01*
X125251772Y-92318297D01*
X125096900Y-92254147D01*
X124957519Y-92161015D01*
X124838985Y-92042481D01*
X124745853Y-91903100D01*
X124681703Y-91748228D01*
X124649000Y-91583816D01*
X124649000Y-91416184D01*
X124681703Y-91251772D01*
X124745853Y-91096900D01*
X124838985Y-90957519D01*
X124957519Y-90838985D01*
X125096900Y-90745853D01*
X125251772Y-90681703D01*
X125416184Y-90649000D01*
X125583816Y-90649000D01*
X125748228Y-90681703D01*
G37*
G36*
X130748228Y-90681703D02*
G01*
X130903100Y-90745853D01*
X131042481Y-90838985D01*
X131161015Y-90957519D01*
X131254147Y-91096900D01*
X131318297Y-91251772D01*
X131351000Y-91416184D01*
X131351000Y-91583816D01*
X131318297Y-91748228D01*
X131254147Y-91903100D01*
X131161015Y-92042481D01*
X131042481Y-92161015D01*
X130903100Y-92254147D01*
X130748228Y-92318297D01*
X130583816Y-92351000D01*
X130416184Y-92351000D01*
X130251772Y-92318297D01*
X130096900Y-92254147D01*
X129957519Y-92161015D01*
X129838985Y-92042481D01*
X129745853Y-91903100D01*
X129681703Y-91748228D01*
X129649000Y-91583816D01*
X129649000Y-91416184D01*
X129681703Y-91251772D01*
X129745853Y-91096900D01*
X129838985Y-90957519D01*
X129957519Y-90838985D01*
X130096900Y-90745853D01*
X130251772Y-90681703D01*
X130416184Y-90649000D01*
X130583816Y-90649000D01*
X130748228Y-90681703D01*
G37*
G36*
X151748228Y-88521703D02*
G01*
X151903100Y-88585853D01*
X152042481Y-88678985D01*
X152161015Y-88797519D01*
X152254147Y-88936900D01*
X152318297Y-89091772D01*
X152351000Y-89256184D01*
X152351000Y-89423816D01*
X152318297Y-89588228D01*
X152254147Y-89743100D01*
X152161015Y-89882481D01*
X152042481Y-90001015D01*
X151903100Y-90094147D01*
X151748228Y-90158297D01*
X151583816Y-90191000D01*
X151416184Y-90191000D01*
X151251772Y-90158297D01*
X151096900Y-90094147D01*
X150957519Y-90001015D01*
X150838985Y-89882481D01*
X150745853Y-89743100D01*
X150681703Y-89588228D01*
X150649000Y-89423816D01*
X150649000Y-89256184D01*
X150681703Y-89091772D01*
X150745853Y-88936900D01*
X150838985Y-88797519D01*
X150957519Y-88678985D01*
X151096900Y-88585853D01*
X151251772Y-88521703D01*
X151416184Y-88489000D01*
X151583816Y-88489000D01*
X151748228Y-88521703D01*
G37*
G36*
X144128228Y-88521703D02*
G01*
X144283100Y-88585853D01*
X144422481Y-88678985D01*
X144541015Y-88797519D01*
X144634147Y-88936900D01*
X144698297Y-89091772D01*
X144731000Y-89256184D01*
X144731000Y-89423816D01*
X144698297Y-89588228D01*
X144634147Y-89743100D01*
X144541015Y-89882481D01*
X144422481Y-90001015D01*
X144283100Y-90094147D01*
X144128228Y-90158297D01*
X143963816Y-90191000D01*
X143796184Y-90191000D01*
X143631772Y-90158297D01*
X143476900Y-90094147D01*
X143337519Y-90001015D01*
X143218985Y-89882481D01*
X143125853Y-89743100D01*
X143061703Y-89588228D01*
X143029000Y-89423816D01*
X143029000Y-89256184D01*
X143061703Y-89091772D01*
X143125853Y-88936900D01*
X143218985Y-88797519D01*
X143337519Y-88678985D01*
X143476900Y-88585853D01*
X143631772Y-88521703D01*
X143796184Y-88489000D01*
X143963816Y-88489000D01*
X144128228Y-88521703D01*
G37*
G36*
X171613512Y-88263927D02*
G01*
X171762812Y-88293624D01*
X171926784Y-88361544D01*
X172074354Y-88460147D01*
X172199853Y-88585646D01*
X172298456Y-88733216D01*
X172366376Y-88897188D01*
X172401000Y-89071259D01*
X172401000Y-89248741D01*
X172366376Y-89422812D01*
X172298456Y-89586784D01*
X172199853Y-89734354D01*
X172074354Y-89859853D01*
X171926784Y-89958456D01*
X171762812Y-90026376D01*
X171613512Y-90056073D01*
X171588742Y-90061000D01*
X171411258Y-90061000D01*
X171386488Y-90056073D01*
X171237188Y-90026376D01*
X171073216Y-89958456D01*
X170925646Y-89859853D01*
X170800147Y-89734354D01*
X170701544Y-89586784D01*
X170633624Y-89422812D01*
X170599000Y-89248741D01*
X170599000Y-89071259D01*
X170633624Y-88897188D01*
X170701544Y-88733216D01*
X170800147Y-88585646D01*
X170925646Y-88460147D01*
X171073216Y-88361544D01*
X171237188Y-88293624D01*
X171386488Y-88263927D01*
X171411258Y-88259000D01*
X171588742Y-88259000D01*
X171613512Y-88263927D01*
G37*
G36*
X57210915Y-88052934D02*
G01*
X57243424Y-88062795D01*
X57273382Y-88078809D01*
X57299641Y-88100359D01*
X57321191Y-88126618D01*
X57337205Y-88156576D01*
X57347066Y-88189085D01*
X57351000Y-88229029D01*
X57351000Y-89770971D01*
X57347066Y-89810915D01*
X57337205Y-89843424D01*
X57321191Y-89873382D01*
X57299641Y-89899641D01*
X57273382Y-89921191D01*
X57243424Y-89937205D01*
X57210915Y-89947066D01*
X57170971Y-89951000D01*
X53829029Y-89951000D01*
X53789085Y-89947066D01*
X53756576Y-89937205D01*
X53726618Y-89921191D01*
X53700359Y-89899641D01*
X53678809Y-89873382D01*
X53662795Y-89843424D01*
X53652934Y-89810915D01*
X53649000Y-89770971D01*
X53649000Y-88229029D01*
X53652934Y-88189085D01*
X53662795Y-88156576D01*
X53678809Y-88126618D01*
X53700359Y-88100359D01*
X53726618Y-88078809D01*
X53756576Y-88062795D01*
X53789085Y-88052934D01*
X53829029Y-88049000D01*
X57170971Y-88049000D01*
X57210915Y-88052934D01*
G37*
G36*
X116253307Y-85719000D02*
G01*
X116452410Y-85758604D01*
X116734674Y-85875521D01*
X116988705Y-86045259D01*
X117204741Y-86261295D01*
X117374479Y-86515326D01*
X117491396Y-86797590D01*
X117551000Y-87097240D01*
X117551000Y-87402760D01*
X117491396Y-87702410D01*
X117374479Y-87984674D01*
X117204741Y-88238705D01*
X116988705Y-88454741D01*
X116734674Y-88624479D01*
X116452410Y-88741396D01*
X116302585Y-88771198D01*
X116152761Y-88801000D01*
X115847239Y-88801000D01*
X115697415Y-88771198D01*
X115547590Y-88741396D01*
X115265326Y-88624479D01*
X115011295Y-88454741D01*
X114795259Y-88238705D01*
X114625521Y-87984674D01*
X114508604Y-87702410D01*
X114449000Y-87402760D01*
X114449000Y-87097240D01*
X114508604Y-86797590D01*
X114625521Y-86515326D01*
X114795259Y-86261295D01*
X115011295Y-86045259D01*
X115265326Y-85875521D01*
X115547590Y-85758604D01*
X115746693Y-85719000D01*
X115847239Y-85699000D01*
X116152761Y-85699000D01*
X116253307Y-85719000D01*
G37*
G36*
X144128228Y-85981703D02*
G01*
X144283100Y-86045853D01*
X144422481Y-86138985D01*
X144541015Y-86257519D01*
X144634147Y-86396900D01*
X144698297Y-86551772D01*
X144731000Y-86716184D01*
X144731000Y-86883816D01*
X144698297Y-87048228D01*
X144634147Y-87203100D01*
X144541015Y-87342481D01*
X144422481Y-87461015D01*
X144283100Y-87554147D01*
X144128228Y-87618297D01*
X143963816Y-87651000D01*
X143796184Y-87651000D01*
X143631772Y-87618297D01*
X143476900Y-87554147D01*
X143337519Y-87461015D01*
X143218985Y-87342481D01*
X143125853Y-87203100D01*
X143061703Y-87048228D01*
X143029000Y-86883816D01*
X143029000Y-86716184D01*
X143061703Y-86551772D01*
X143125853Y-86396900D01*
X143218985Y-86257519D01*
X143337519Y-86138985D01*
X143476900Y-86045853D01*
X143631772Y-85981703D01*
X143796184Y-85949000D01*
X143963816Y-85949000D01*
X144128228Y-85981703D01*
G37*
G36*
X151748228Y-85981703D02*
G01*
X151903100Y-86045853D01*
X152042481Y-86138985D01*
X152161015Y-86257519D01*
X152254147Y-86396900D01*
X152318297Y-86551772D01*
X152351000Y-86716184D01*
X152351000Y-86883816D01*
X152318297Y-87048228D01*
X152254147Y-87203100D01*
X152161015Y-87342481D01*
X152042481Y-87461015D01*
X151903100Y-87554147D01*
X151748228Y-87618297D01*
X151583816Y-87651000D01*
X151416184Y-87651000D01*
X151251772Y-87618297D01*
X151096900Y-87554147D01*
X150957519Y-87461015D01*
X150838985Y-87342481D01*
X150745853Y-87203100D01*
X150681703Y-87048228D01*
X150649000Y-86883816D01*
X150649000Y-86716184D01*
X150681703Y-86551772D01*
X150745853Y-86396900D01*
X150838985Y-86257519D01*
X150957519Y-86138985D01*
X151096900Y-86045853D01*
X151251772Y-85981703D01*
X151416184Y-85949000D01*
X151583816Y-85949000D01*
X151748228Y-85981703D01*
G37*
G36*
X171613512Y-85723927D02*
G01*
X171762812Y-85753624D01*
X171926784Y-85821544D01*
X172074354Y-85920147D01*
X172199853Y-86045646D01*
X172298456Y-86193216D01*
X172366376Y-86357188D01*
X172401000Y-86531259D01*
X172401000Y-86708741D01*
X172366376Y-86882812D01*
X172298456Y-87046784D01*
X172199853Y-87194354D01*
X172074354Y-87319853D01*
X171926784Y-87418456D01*
X171762812Y-87486376D01*
X171613512Y-87516073D01*
X171588742Y-87521000D01*
X171411258Y-87521000D01*
X171386488Y-87516073D01*
X171237188Y-87486376D01*
X171073216Y-87418456D01*
X170925646Y-87319853D01*
X170800147Y-87194354D01*
X170701544Y-87046784D01*
X170633624Y-86882812D01*
X170599000Y-86708741D01*
X170599000Y-86531259D01*
X170633624Y-86357188D01*
X170701544Y-86193216D01*
X170800147Y-86045646D01*
X170925646Y-85920147D01*
X171073216Y-85821544D01*
X171237188Y-85753624D01*
X171386488Y-85723927D01*
X171411258Y-85719000D01*
X171588742Y-85719000D01*
X171613512Y-85723927D01*
G37*
G36*
X79051000Y-86051000D02*
G01*
X75949000Y-86051000D01*
X75949000Y-82949000D01*
X79051000Y-82949000D01*
X79051000Y-86051000D01*
G37*
G36*
X144128228Y-83441703D02*
G01*
X144283100Y-83505853D01*
X144422481Y-83598985D01*
X144541015Y-83717519D01*
X144634147Y-83856900D01*
X144698297Y-84011772D01*
X144731000Y-84176184D01*
X144731000Y-84343816D01*
X144698297Y-84508228D01*
X144634147Y-84663100D01*
X144541015Y-84802481D01*
X144422481Y-84921015D01*
X144283100Y-85014147D01*
X144128228Y-85078297D01*
X143963816Y-85111000D01*
X143796184Y-85111000D01*
X143631772Y-85078297D01*
X143476900Y-85014147D01*
X143337519Y-84921015D01*
X143218985Y-84802481D01*
X143125853Y-84663100D01*
X143061703Y-84508228D01*
X143029000Y-84343816D01*
X143029000Y-84176184D01*
X143061703Y-84011772D01*
X143125853Y-83856900D01*
X143218985Y-83717519D01*
X143337519Y-83598985D01*
X143476900Y-83505853D01*
X143631772Y-83441703D01*
X143796184Y-83409000D01*
X143963816Y-83409000D01*
X144128228Y-83441703D01*
G37*
G36*
X151748228Y-83441703D02*
G01*
X151903100Y-83505853D01*
X152042481Y-83598985D01*
X152161015Y-83717519D01*
X152254147Y-83856900D01*
X152318297Y-84011772D01*
X152351000Y-84176184D01*
X152351000Y-84343816D01*
X152318297Y-84508228D01*
X152254147Y-84663100D01*
X152161015Y-84802481D01*
X152042481Y-84921015D01*
X151903100Y-85014147D01*
X151748228Y-85078297D01*
X151583816Y-85111000D01*
X151416184Y-85111000D01*
X151251772Y-85078297D01*
X151096900Y-85014147D01*
X150957519Y-84921015D01*
X150838985Y-84802481D01*
X150745853Y-84663100D01*
X150681703Y-84508228D01*
X150649000Y-84343816D01*
X150649000Y-84176184D01*
X150681703Y-84011772D01*
X150745853Y-83856900D01*
X150838985Y-83717519D01*
X150957519Y-83598985D01*
X151096900Y-83505853D01*
X151251772Y-83441703D01*
X151416184Y-83409000D01*
X151583816Y-83409000D01*
X151748228Y-83441703D01*
G37*
G36*
X171613512Y-83183927D02*
G01*
X171762812Y-83213624D01*
X171926784Y-83281544D01*
X172074354Y-83380147D01*
X172199853Y-83505646D01*
X172298456Y-83653216D01*
X172366376Y-83817188D01*
X172401000Y-83991259D01*
X172401000Y-84168741D01*
X172366376Y-84342812D01*
X172298456Y-84506784D01*
X172199853Y-84654354D01*
X172074354Y-84779853D01*
X171926784Y-84878456D01*
X171762812Y-84946376D01*
X171613512Y-84976073D01*
X171588742Y-84981000D01*
X171411258Y-84981000D01*
X171386488Y-84976073D01*
X171237188Y-84946376D01*
X171073216Y-84878456D01*
X170925646Y-84779853D01*
X170800147Y-84654354D01*
X170701544Y-84506784D01*
X170633624Y-84342812D01*
X170599000Y-84168741D01*
X170599000Y-83991259D01*
X170633624Y-83817188D01*
X170701544Y-83653216D01*
X170800147Y-83505646D01*
X170925646Y-83380147D01*
X171073216Y-83281544D01*
X171237188Y-83213624D01*
X171386488Y-83183927D01*
X171411258Y-83179000D01*
X171588742Y-83179000D01*
X171613512Y-83183927D01*
G37*
G36*
X56586425Y-82982760D02*
G01*
X56586428Y-82982761D01*
X56586429Y-82982761D01*
X56765693Y-83037140D01*
X56765696Y-83037142D01*
X56765697Y-83037142D01*
X56930903Y-83125446D01*
X57075712Y-83244288D01*
X57194554Y-83389097D01*
X57256961Y-83505853D01*
X57282860Y-83554307D01*
X57332370Y-83717520D01*
X57337240Y-83733575D01*
X57355601Y-83920000D01*
X57337240Y-84106425D01*
X57337239Y-84106428D01*
X57337239Y-84106429D01*
X57282860Y-84285693D01*
X57282858Y-84285696D01*
X57282858Y-84285697D01*
X57194554Y-84450903D01*
X57075712Y-84595712D01*
X56930903Y-84714554D01*
X56766404Y-84802480D01*
X56765693Y-84802860D01*
X56586429Y-84857239D01*
X56586428Y-84857239D01*
X56586425Y-84857240D01*
X56446718Y-84871000D01*
X54553282Y-84871000D01*
X54413575Y-84857240D01*
X54413572Y-84857239D01*
X54413571Y-84857239D01*
X54234307Y-84802860D01*
X54233596Y-84802480D01*
X54069097Y-84714554D01*
X53924288Y-84595712D01*
X53805446Y-84450903D01*
X53717142Y-84285697D01*
X53717142Y-84285696D01*
X53717140Y-84285693D01*
X53662761Y-84106429D01*
X53662761Y-84106428D01*
X53662760Y-84106425D01*
X53644399Y-83920000D01*
X53662760Y-83733575D01*
X53667630Y-83717520D01*
X53717140Y-83554307D01*
X53743039Y-83505853D01*
X53805446Y-83389097D01*
X53924288Y-83244288D01*
X54069097Y-83125446D01*
X54234303Y-83037142D01*
X54234304Y-83037142D01*
X54234307Y-83037140D01*
X54413571Y-82982761D01*
X54413572Y-82982761D01*
X54413575Y-82982760D01*
X54553282Y-82969000D01*
X56446718Y-82969000D01*
X56586425Y-82982760D01*
G37*
G36*
X144128228Y-80901703D02*
G01*
X144283100Y-80965853D01*
X144422481Y-81058985D01*
X144541015Y-81177519D01*
X144634147Y-81316900D01*
X144698297Y-81471772D01*
X144731000Y-81636184D01*
X144731000Y-81803816D01*
X144698297Y-81968228D01*
X144634147Y-82123100D01*
X144541015Y-82262481D01*
X144422481Y-82381015D01*
X144283100Y-82474147D01*
X144128228Y-82538297D01*
X143963816Y-82571000D01*
X143796184Y-82571000D01*
X143631772Y-82538297D01*
X143476900Y-82474147D01*
X143337519Y-82381015D01*
X143218985Y-82262481D01*
X143125853Y-82123100D01*
X143061703Y-81968228D01*
X143029000Y-81803816D01*
X143029000Y-81636184D01*
X143061703Y-81471772D01*
X143125853Y-81316900D01*
X143218985Y-81177519D01*
X143337519Y-81058985D01*
X143476900Y-80965853D01*
X143631772Y-80901703D01*
X143796184Y-80869000D01*
X143963816Y-80869000D01*
X144128228Y-80901703D01*
G37*
G36*
X151748228Y-80901703D02*
G01*
X151903100Y-80965853D01*
X152042481Y-81058985D01*
X152161015Y-81177519D01*
X152254147Y-81316900D01*
X152318297Y-81471772D01*
X152351000Y-81636184D01*
X152351000Y-81803816D01*
X152318297Y-81968228D01*
X152254147Y-82123100D01*
X152161015Y-82262481D01*
X152042481Y-82381015D01*
X151903100Y-82474147D01*
X151748228Y-82538297D01*
X151583816Y-82571000D01*
X151416184Y-82571000D01*
X151251772Y-82538297D01*
X151096900Y-82474147D01*
X150957519Y-82381015D01*
X150838985Y-82262481D01*
X150745853Y-82123100D01*
X150681703Y-81968228D01*
X150649000Y-81803816D01*
X150649000Y-81636184D01*
X150681703Y-81471772D01*
X150745853Y-81316900D01*
X150838985Y-81177519D01*
X150957519Y-81058985D01*
X151096900Y-80965853D01*
X151251772Y-80901703D01*
X151416184Y-80869000D01*
X151583816Y-80869000D01*
X151748228Y-80901703D01*
G37*
G36*
X171613512Y-80643927D02*
G01*
X171762812Y-80673624D01*
X171926784Y-80741544D01*
X172074354Y-80840147D01*
X172199853Y-80965646D01*
X172298456Y-81113216D01*
X172366376Y-81277188D01*
X172401000Y-81451259D01*
X172401000Y-81628741D01*
X172366376Y-81802812D01*
X172298456Y-81966784D01*
X172199853Y-82114354D01*
X172074354Y-82239853D01*
X171926784Y-82338456D01*
X171762812Y-82406376D01*
X171613512Y-82436073D01*
X171588742Y-82441000D01*
X171411258Y-82441000D01*
X171386488Y-82436073D01*
X171237188Y-82406376D01*
X171073216Y-82338456D01*
X170925646Y-82239853D01*
X170800147Y-82114354D01*
X170701544Y-81966784D01*
X170633624Y-81802812D01*
X170599000Y-81628741D01*
X170599000Y-81451259D01*
X170633624Y-81277188D01*
X170701544Y-81113216D01*
X170800147Y-80965646D01*
X170925646Y-80840147D01*
X171073216Y-80741544D01*
X171237188Y-80673624D01*
X171386488Y-80643927D01*
X171411258Y-80639000D01*
X171588742Y-80639000D01*
X171613512Y-80643927D01*
G37*
G36*
X127736719Y-77963520D02*
G01*
X127925880Y-78020901D01*
X127925883Y-78020902D01*
X128018333Y-78070318D01*
X128100212Y-78114083D01*
X128253015Y-78239485D01*
X128378417Y-78392288D01*
X128471599Y-78566619D01*
X128528980Y-78755780D01*
X128543500Y-78903206D01*
X128543500Y-79096793D01*
X128528980Y-79244219D01*
X128471599Y-79433380D01*
X128471598Y-79433383D01*
X128422182Y-79525833D01*
X128378417Y-79607712D01*
X128253015Y-79760515D01*
X128100212Y-79885917D01*
X127925881Y-79979099D01*
X127736720Y-80036480D01*
X127540000Y-80055855D01*
X127343281Y-80036480D01*
X127154120Y-79979099D01*
X126979788Y-79885917D01*
X126826985Y-79760515D01*
X126701583Y-79607712D01*
X126608401Y-79433381D01*
X126551020Y-79244220D01*
X126536500Y-79096794D01*
X126536500Y-78903207D01*
X126536511Y-78903100D01*
X126551020Y-78755783D01*
X126551020Y-78755781D01*
X126608401Y-78566620D01*
X126608402Y-78566617D01*
X126657818Y-78474167D01*
X126701583Y-78392288D01*
X126826985Y-78239485D01*
X126979788Y-78114083D01*
X127154119Y-78020901D01*
X127343280Y-77963520D01*
X127540000Y-77944145D01*
X127736719Y-77963520D01*
G37*
G36*
X130276719Y-77963520D02*
G01*
X130465880Y-78020901D01*
X130465883Y-78020902D01*
X130558333Y-78070318D01*
X130640212Y-78114083D01*
X130793015Y-78239485D01*
X130918417Y-78392288D01*
X131011599Y-78566619D01*
X131068980Y-78755780D01*
X131083500Y-78903206D01*
X131083500Y-79096793D01*
X131068980Y-79244219D01*
X131011599Y-79433380D01*
X131011598Y-79433383D01*
X130962182Y-79525833D01*
X130918417Y-79607712D01*
X130793015Y-79760515D01*
X130640212Y-79885917D01*
X130465881Y-79979099D01*
X130276720Y-80036480D01*
X130080000Y-80055855D01*
X129883281Y-80036480D01*
X129694120Y-79979099D01*
X129519788Y-79885917D01*
X129366985Y-79760515D01*
X129241583Y-79607712D01*
X129148401Y-79433381D01*
X129091020Y-79244220D01*
X129076500Y-79096794D01*
X129076500Y-78903207D01*
X129076511Y-78903100D01*
X129091020Y-78755783D01*
X129091020Y-78755781D01*
X129148401Y-78566620D01*
X129148402Y-78566617D01*
X129197818Y-78474167D01*
X129241583Y-78392288D01*
X129366985Y-78239485D01*
X129519788Y-78114083D01*
X129694119Y-78020901D01*
X129883280Y-77963520D01*
X130080000Y-77944145D01*
X130276719Y-77963520D01*
G37*
G36*
X126003500Y-80051000D02*
G01*
X123996500Y-80051000D01*
X123996500Y-77949000D01*
X126003500Y-77949000D01*
X126003500Y-80051000D01*
G37*
G36*
X151748228Y-78361703D02*
G01*
X151903100Y-78425853D01*
X152042481Y-78518985D01*
X152161015Y-78637519D01*
X152254147Y-78776900D01*
X152318297Y-78931772D01*
X152351000Y-79096184D01*
X152351000Y-79263816D01*
X152318297Y-79428228D01*
X152254147Y-79583100D01*
X152161015Y-79722481D01*
X152042481Y-79841015D01*
X151903100Y-79934147D01*
X151748228Y-79998297D01*
X151583816Y-80031000D01*
X151416184Y-80031000D01*
X151251772Y-79998297D01*
X151096900Y-79934147D01*
X150957519Y-79841015D01*
X150838985Y-79722481D01*
X150745853Y-79583100D01*
X150681703Y-79428228D01*
X150649000Y-79263816D01*
X150649000Y-79096184D01*
X150681703Y-78931772D01*
X150745853Y-78776900D01*
X150838985Y-78637519D01*
X150957519Y-78518985D01*
X151096900Y-78425853D01*
X151251772Y-78361703D01*
X151416184Y-78329000D01*
X151583816Y-78329000D01*
X151748228Y-78361703D01*
G37*
G36*
X144128228Y-78361703D02*
G01*
X144283100Y-78425853D01*
X144422481Y-78518985D01*
X144541015Y-78637519D01*
X144634147Y-78776900D01*
X144698297Y-78931772D01*
X144731000Y-79096184D01*
X144731000Y-79263816D01*
X144698297Y-79428228D01*
X144634147Y-79583100D01*
X144541015Y-79722481D01*
X144422481Y-79841015D01*
X144283100Y-79934147D01*
X144128228Y-79998297D01*
X143963816Y-80031000D01*
X143796184Y-80031000D01*
X143631772Y-79998297D01*
X143476900Y-79934147D01*
X143337519Y-79841015D01*
X143218985Y-79722481D01*
X143125853Y-79583100D01*
X143061703Y-79428228D01*
X143029000Y-79263816D01*
X143029000Y-79096184D01*
X143061703Y-78931772D01*
X143125853Y-78776900D01*
X143218985Y-78637519D01*
X143337519Y-78518985D01*
X143476900Y-78425853D01*
X143631772Y-78361703D01*
X143796184Y-78329000D01*
X143963816Y-78329000D01*
X144128228Y-78361703D01*
G37*
G36*
X172401000Y-79901000D02*
G01*
X170599000Y-79901000D01*
X170599000Y-78099000D01*
X172401000Y-78099000D01*
X172401000Y-79901000D01*
G37*
G36*
X162748228Y-77681703D02*
G01*
X162903100Y-77745853D01*
X163042481Y-77838985D01*
X163161015Y-77957519D01*
X163254147Y-78096900D01*
X163318297Y-78251772D01*
X163351000Y-78416184D01*
X163351000Y-78583816D01*
X163318297Y-78748228D01*
X163254147Y-78903100D01*
X163161015Y-79042481D01*
X163042481Y-79161015D01*
X162903100Y-79254147D01*
X162748228Y-79318297D01*
X162583816Y-79351000D01*
X162416184Y-79351000D01*
X162251772Y-79318297D01*
X162096900Y-79254147D01*
X161957519Y-79161015D01*
X161838985Y-79042481D01*
X161745853Y-78903100D01*
X161681703Y-78748228D01*
X161649000Y-78583816D01*
X161649000Y-78416184D01*
X161681703Y-78251772D01*
X161745853Y-78096900D01*
X161838985Y-77957519D01*
X161957519Y-77838985D01*
X162096900Y-77745853D01*
X162251772Y-77681703D01*
X162416184Y-77649000D01*
X162583816Y-77649000D01*
X162748228Y-77681703D01*
G37*
G36*
X165248228Y-77681703D02*
G01*
X165403100Y-77745853D01*
X165542481Y-77838985D01*
X165661015Y-77957519D01*
X165754147Y-78096900D01*
X165818297Y-78251772D01*
X165851000Y-78416184D01*
X165851000Y-78583816D01*
X165818297Y-78748228D01*
X165754147Y-78903100D01*
X165661015Y-79042481D01*
X165542481Y-79161015D01*
X165403100Y-79254147D01*
X165248228Y-79318297D01*
X165083816Y-79351000D01*
X164916184Y-79351000D01*
X164751772Y-79318297D01*
X164596900Y-79254147D01*
X164457519Y-79161015D01*
X164338985Y-79042481D01*
X164245853Y-78903100D01*
X164181703Y-78748228D01*
X164149000Y-78583816D01*
X164149000Y-78416184D01*
X164181703Y-78251772D01*
X164245853Y-78096900D01*
X164338985Y-77957519D01*
X164457519Y-77838985D01*
X164596900Y-77745853D01*
X164751772Y-77681703D01*
X164916184Y-77649000D01*
X165083816Y-77649000D01*
X165248228Y-77681703D01*
G37*
G36*
X158733642Y-77529781D02*
G01*
X158879414Y-77590162D01*
X158879416Y-77590163D01*
X159010608Y-77677822D01*
X159122178Y-77789392D01*
X159209837Y-77920584D01*
X159209838Y-77920586D01*
X159270219Y-78066358D01*
X159301000Y-78221107D01*
X159301000Y-78378893D01*
X159270219Y-78533642D01*
X159227191Y-78637520D01*
X159209837Y-78679416D01*
X159122178Y-78810608D01*
X159010608Y-78922178D01*
X158879416Y-79009837D01*
X158879415Y-79009838D01*
X158879414Y-79009838D01*
X158733642Y-79070219D01*
X158578893Y-79101000D01*
X158421107Y-79101000D01*
X158266358Y-79070219D01*
X158120586Y-79009838D01*
X158120585Y-79009838D01*
X158120584Y-79009837D01*
X157989392Y-78922178D01*
X157877822Y-78810608D01*
X157790163Y-78679416D01*
X157772809Y-78637520D01*
X157729781Y-78533642D01*
X157699000Y-78378893D01*
X157699000Y-78221107D01*
X157729781Y-78066358D01*
X157790162Y-77920586D01*
X157790163Y-77920584D01*
X157877822Y-77789392D01*
X157989392Y-77677822D01*
X158120584Y-77590163D01*
X158120586Y-77590162D01*
X158266358Y-77529781D01*
X158421107Y-77499000D01*
X158578893Y-77499000D01*
X158733642Y-77529781D01*
G37*
G36*
X144128228Y-75821703D02*
G01*
X144283100Y-75885853D01*
X144422481Y-75978985D01*
X144541015Y-76097519D01*
X144634147Y-76236900D01*
X144698297Y-76391772D01*
X144731000Y-76556184D01*
X144731000Y-76723816D01*
X144698297Y-76888228D01*
X144634147Y-77043100D01*
X144541015Y-77182481D01*
X144422481Y-77301015D01*
X144283100Y-77394147D01*
X144128228Y-77458297D01*
X143963816Y-77491000D01*
X143796184Y-77491000D01*
X143631772Y-77458297D01*
X143476900Y-77394147D01*
X143337519Y-77301015D01*
X143218985Y-77182481D01*
X143125853Y-77043100D01*
X143061703Y-76888228D01*
X143029000Y-76723816D01*
X143029000Y-76556184D01*
X143061703Y-76391772D01*
X143125853Y-76236900D01*
X143218985Y-76097519D01*
X143337519Y-75978985D01*
X143476900Y-75885853D01*
X143631772Y-75821703D01*
X143796184Y-75789000D01*
X143963816Y-75789000D01*
X144128228Y-75821703D01*
G37*
G36*
X151748228Y-75821703D02*
G01*
X151903100Y-75885853D01*
X152042481Y-75978985D01*
X152161015Y-76097519D01*
X152254147Y-76236900D01*
X152318297Y-76391772D01*
X152351000Y-76556184D01*
X152351000Y-76723816D01*
X152318297Y-76888228D01*
X152254147Y-77043100D01*
X152161015Y-77182481D01*
X152042481Y-77301015D01*
X151903100Y-77394147D01*
X151748228Y-77458297D01*
X151583816Y-77491000D01*
X151416184Y-77491000D01*
X151251772Y-77458297D01*
X151096900Y-77394147D01*
X150957519Y-77301015D01*
X150838985Y-77182481D01*
X150745853Y-77043100D01*
X150681703Y-76888228D01*
X150649000Y-76723816D01*
X150649000Y-76556184D01*
X150681703Y-76391772D01*
X150745853Y-76236900D01*
X150838985Y-76097519D01*
X150957519Y-75978985D01*
X151096900Y-75885853D01*
X151251772Y-75821703D01*
X151416184Y-75789000D01*
X151583816Y-75789000D01*
X151748228Y-75821703D01*
G37*
G36*
X162748228Y-73681703D02*
G01*
X162903100Y-73745853D01*
X163042481Y-73838985D01*
X163161015Y-73957519D01*
X163254147Y-74096900D01*
X163318297Y-74251772D01*
X163351000Y-74416184D01*
X163351000Y-74583816D01*
X163318297Y-74748228D01*
X163254147Y-74903100D01*
X163161015Y-75042481D01*
X163042481Y-75161015D01*
X162903100Y-75254147D01*
X162748228Y-75318297D01*
X162583816Y-75351000D01*
X162416184Y-75351000D01*
X162251772Y-75318297D01*
X162096900Y-75254147D01*
X161957519Y-75161015D01*
X161838985Y-75042481D01*
X161745853Y-74903100D01*
X161681703Y-74748228D01*
X161649000Y-74583816D01*
X161649000Y-74416184D01*
X161681703Y-74251772D01*
X161745853Y-74096900D01*
X161838985Y-73957519D01*
X161957519Y-73838985D01*
X162096900Y-73745853D01*
X162251772Y-73681703D01*
X162416184Y-73649000D01*
X162583816Y-73649000D01*
X162748228Y-73681703D01*
G37*
G36*
X165248228Y-73681703D02*
G01*
X165403100Y-73745853D01*
X165542481Y-73838985D01*
X165661015Y-73957519D01*
X165754147Y-74096900D01*
X165818297Y-74251772D01*
X165851000Y-74416184D01*
X165851000Y-74583816D01*
X165818297Y-74748228D01*
X165754147Y-74903100D01*
X165661015Y-75042481D01*
X165542481Y-75161015D01*
X165403100Y-75254147D01*
X165248228Y-75318297D01*
X165083816Y-75351000D01*
X164916184Y-75351000D01*
X164751772Y-75318297D01*
X164596900Y-75254147D01*
X164457519Y-75161015D01*
X164338985Y-75042481D01*
X164245853Y-74903100D01*
X164181703Y-74748228D01*
X164149000Y-74583816D01*
X164149000Y-74416184D01*
X164181703Y-74251772D01*
X164245853Y-74096900D01*
X164338985Y-73957519D01*
X164457519Y-73838985D01*
X164596900Y-73745853D01*
X164751772Y-73681703D01*
X164916184Y-73649000D01*
X165083816Y-73649000D01*
X165248228Y-73681703D01*
G37*
G36*
X158733642Y-73729781D02*
G01*
X158879414Y-73790162D01*
X158879416Y-73790163D01*
X159010608Y-73877822D01*
X159122178Y-73989392D01*
X159140080Y-74016185D01*
X159209838Y-74120586D01*
X159270219Y-74266358D01*
X159301000Y-74421107D01*
X159301000Y-74578893D01*
X159270219Y-74733642D01*
X159209838Y-74879414D01*
X159209837Y-74879416D01*
X159122178Y-75010608D01*
X159010608Y-75122178D01*
X158879416Y-75209837D01*
X158879415Y-75209838D01*
X158879414Y-75209838D01*
X158733642Y-75270219D01*
X158578893Y-75301000D01*
X158421107Y-75301000D01*
X158266358Y-75270219D01*
X158120586Y-75209838D01*
X158120585Y-75209838D01*
X158120584Y-75209837D01*
X157989392Y-75122178D01*
X157877822Y-75010608D01*
X157790163Y-74879416D01*
X157790162Y-74879414D01*
X157729781Y-74733642D01*
X157699000Y-74578893D01*
X157699000Y-74421107D01*
X157729781Y-74266358D01*
X157790162Y-74120586D01*
X157859920Y-74016185D01*
X157877822Y-73989392D01*
X157989392Y-73877822D01*
X158120584Y-73790163D01*
X158120586Y-73790162D01*
X158266358Y-73729781D01*
X158421107Y-73699000D01*
X158578893Y-73699000D01*
X158733642Y-73729781D01*
G37*
G36*
X151748228Y-73281703D02*
G01*
X151903100Y-73345853D01*
X152042481Y-73438985D01*
X152161015Y-73557519D01*
X152254147Y-73696900D01*
X152318297Y-73851772D01*
X152351000Y-74016184D01*
X152351000Y-74183816D01*
X152318297Y-74348228D01*
X152254147Y-74503100D01*
X152161015Y-74642481D01*
X152042481Y-74761015D01*
X151903100Y-74854147D01*
X151748228Y-74918297D01*
X151583816Y-74951000D01*
X151416184Y-74951000D01*
X151251772Y-74918297D01*
X151096900Y-74854147D01*
X150957519Y-74761015D01*
X150838985Y-74642481D01*
X150745853Y-74503100D01*
X150681703Y-74348228D01*
X150649000Y-74183816D01*
X150649000Y-74016184D01*
X150681703Y-73851772D01*
X150745853Y-73696900D01*
X150838985Y-73557519D01*
X150957519Y-73438985D01*
X151096900Y-73345853D01*
X151251772Y-73281703D01*
X151416184Y-73249000D01*
X151583816Y-73249000D01*
X151748228Y-73281703D01*
G37*
G36*
X144128228Y-73281703D02*
G01*
X144283100Y-73345853D01*
X144422481Y-73438985D01*
X144541015Y-73557519D01*
X144634147Y-73696900D01*
X144698297Y-73851772D01*
X144731000Y-74016184D01*
X144731000Y-74183816D01*
X144698297Y-74348228D01*
X144634147Y-74503100D01*
X144541015Y-74642481D01*
X144422481Y-74761015D01*
X144283100Y-74854147D01*
X144128228Y-74918297D01*
X143963816Y-74951000D01*
X143796184Y-74951000D01*
X143631772Y-74918297D01*
X143476900Y-74854147D01*
X143337519Y-74761015D01*
X143218985Y-74642481D01*
X143125853Y-74503100D01*
X143061703Y-74348228D01*
X143029000Y-74183816D01*
X143029000Y-74016184D01*
X143061703Y-73851772D01*
X143125853Y-73696900D01*
X143218985Y-73557519D01*
X143337519Y-73438985D01*
X143476900Y-73345853D01*
X143631772Y-73281703D01*
X143796184Y-73249000D01*
X143963816Y-73249000D01*
X144128228Y-73281703D01*
G37*
G36*
X151748228Y-70741703D02*
G01*
X151903100Y-70805853D01*
X152042481Y-70898985D01*
X152161015Y-71017519D01*
X152254147Y-71156900D01*
X152318297Y-71311772D01*
X152351000Y-71476184D01*
X152351000Y-71643816D01*
X152318297Y-71808228D01*
X152254147Y-71963100D01*
X152161015Y-72102481D01*
X152042481Y-72221015D01*
X151903100Y-72314147D01*
X151748228Y-72378297D01*
X151583816Y-72411000D01*
X151416184Y-72411000D01*
X151251772Y-72378297D01*
X151096900Y-72314147D01*
X150957519Y-72221015D01*
X150838985Y-72102481D01*
X150745853Y-71963100D01*
X150681703Y-71808228D01*
X150649000Y-71643816D01*
X150649000Y-71476184D01*
X150681703Y-71311772D01*
X150745853Y-71156900D01*
X150838985Y-71017519D01*
X150957519Y-70898985D01*
X151096900Y-70805853D01*
X151251772Y-70741703D01*
X151416184Y-70709000D01*
X151583816Y-70709000D01*
X151748228Y-70741703D01*
G37*
G36*
X144128228Y-70741703D02*
G01*
X144283100Y-70805853D01*
X144422481Y-70898985D01*
X144541015Y-71017519D01*
X144634147Y-71156900D01*
X144698297Y-71311772D01*
X144731000Y-71476184D01*
X144731000Y-71643816D01*
X144698297Y-71808228D01*
X144634147Y-71963100D01*
X144541015Y-72102481D01*
X144422481Y-72221015D01*
X144283100Y-72314147D01*
X144128228Y-72378297D01*
X143963816Y-72411000D01*
X143796184Y-72411000D01*
X143631772Y-72378297D01*
X143476900Y-72314147D01*
X143337519Y-72221015D01*
X143218985Y-72102481D01*
X143125853Y-71963100D01*
X143061703Y-71808228D01*
X143029000Y-71643816D01*
X143029000Y-71476184D01*
X143061703Y-71311772D01*
X143125853Y-71156900D01*
X143218985Y-71017519D01*
X143337519Y-70898985D01*
X143476900Y-70805853D01*
X143631772Y-70741703D01*
X143796184Y-70709000D01*
X143963816Y-70709000D01*
X144128228Y-70741703D01*
G37*
G36*
X66864903Y-67797075D02*
G01*
X67092571Y-67891378D01*
X67297466Y-68028285D01*
X67471715Y-68202534D01*
X67608622Y-68407429D01*
X67702925Y-68635097D01*
X67751000Y-68876787D01*
X67751000Y-69123213D01*
X67702925Y-69364903D01*
X67608622Y-69592571D01*
X67471715Y-69797466D01*
X67297466Y-69971715D01*
X67092571Y-70108622D01*
X67092570Y-70108623D01*
X67092569Y-70108623D01*
X66864903Y-70202925D01*
X66623214Y-70251000D01*
X66376786Y-70251000D01*
X66135097Y-70202925D01*
X65907431Y-70108623D01*
X65907430Y-70108623D01*
X65907429Y-70108622D01*
X65702534Y-69971715D01*
X65528285Y-69797466D01*
X65391378Y-69592571D01*
X65297075Y-69364903D01*
X65249000Y-69123213D01*
X65249000Y-68876787D01*
X65297075Y-68635097D01*
X65391378Y-68407429D01*
X65528285Y-68202534D01*
X65702534Y-68028285D01*
X65907429Y-67891378D01*
X66135097Y-67797075D01*
X66376786Y-67749000D01*
X66623214Y-67749000D01*
X66864903Y-67797075D01*
G37*
G36*
X144128228Y-68201703D02*
G01*
X144283100Y-68265853D01*
X144422481Y-68358985D01*
X144541015Y-68477519D01*
X144634147Y-68616900D01*
X144698297Y-68771772D01*
X144731000Y-68936184D01*
X144731000Y-69103816D01*
X144698297Y-69268228D01*
X144634147Y-69423100D01*
X144541015Y-69562481D01*
X144422481Y-69681015D01*
X144283100Y-69774147D01*
X144128228Y-69838297D01*
X143963816Y-69871000D01*
X143796184Y-69871000D01*
X143631772Y-69838297D01*
X143476900Y-69774147D01*
X143337519Y-69681015D01*
X143218985Y-69562481D01*
X143125853Y-69423100D01*
X143061703Y-69268228D01*
X143029000Y-69103816D01*
X143029000Y-68936184D01*
X143061703Y-68771772D01*
X143125853Y-68616900D01*
X143218985Y-68477519D01*
X143337519Y-68358985D01*
X143476900Y-68265853D01*
X143631772Y-68201703D01*
X143796184Y-68169000D01*
X143963816Y-68169000D01*
X144128228Y-68201703D01*
G37*
G36*
X151748228Y-68201703D02*
G01*
X151903100Y-68265853D01*
X152042481Y-68358985D01*
X152161015Y-68477519D01*
X152254147Y-68616900D01*
X152318297Y-68771772D01*
X152351000Y-68936184D01*
X152351000Y-69103816D01*
X152318297Y-69268228D01*
X152254147Y-69423100D01*
X152161015Y-69562481D01*
X152042481Y-69681015D01*
X151903100Y-69774147D01*
X151748228Y-69838297D01*
X151583816Y-69871000D01*
X151416184Y-69871000D01*
X151251772Y-69838297D01*
X151096900Y-69774147D01*
X150957519Y-69681015D01*
X150838985Y-69562481D01*
X150745853Y-69423100D01*
X150681703Y-69268228D01*
X150649000Y-69103816D01*
X150649000Y-68936184D01*
X150681703Y-68771772D01*
X150745853Y-68616900D01*
X150838985Y-68477519D01*
X150957519Y-68358985D01*
X151096900Y-68265853D01*
X151251772Y-68201703D01*
X151416184Y-68169000D01*
X151583816Y-68169000D01*
X151748228Y-68201703D01*
G37*
G36*
X151748228Y-65661703D02*
G01*
X151903100Y-65725853D01*
X152042481Y-65818985D01*
X152161015Y-65937519D01*
X152254147Y-66076900D01*
X152318297Y-66231772D01*
X152351000Y-66396184D01*
X152351000Y-66563816D01*
X152318297Y-66728228D01*
X152254147Y-66883100D01*
X152161015Y-67022481D01*
X152042481Y-67141015D01*
X151903100Y-67234147D01*
X151748228Y-67298297D01*
X151583816Y-67331000D01*
X151416184Y-67331000D01*
X151251772Y-67298297D01*
X151096900Y-67234147D01*
X150957519Y-67141015D01*
X150838985Y-67022481D01*
X150745853Y-66883100D01*
X150681703Y-66728228D01*
X150649000Y-66563816D01*
X150649000Y-66396184D01*
X150681703Y-66231772D01*
X150745853Y-66076900D01*
X150838985Y-65937519D01*
X150957519Y-65818985D01*
X151096900Y-65725853D01*
X151251772Y-65661703D01*
X151416184Y-65629000D01*
X151583816Y-65629000D01*
X151748228Y-65661703D01*
G37*
G36*
X144128228Y-65661703D02*
G01*
X144283100Y-65725853D01*
X144422481Y-65818985D01*
X144541015Y-65937519D01*
X144634147Y-66076900D01*
X144698297Y-66231772D01*
X144731000Y-66396184D01*
X144731000Y-66563816D01*
X144698297Y-66728228D01*
X144634147Y-66883100D01*
X144541015Y-67022481D01*
X144422481Y-67141015D01*
X144283100Y-67234147D01*
X144128228Y-67298297D01*
X143963816Y-67331000D01*
X143796184Y-67331000D01*
X143631772Y-67298297D01*
X143476900Y-67234147D01*
X143337519Y-67141015D01*
X143218985Y-67022481D01*
X143125853Y-66883100D01*
X143061703Y-66728228D01*
X143029000Y-66563816D01*
X143029000Y-66396184D01*
X143061703Y-66231772D01*
X143125853Y-66076900D01*
X143218985Y-65937519D01*
X143337519Y-65818985D01*
X143476900Y-65725853D01*
X143631772Y-65661703D01*
X143796184Y-65629000D01*
X143963816Y-65629000D01*
X144128228Y-65661703D01*
G37*
M02*
