G04 #@! TF.GenerationSoftware,KiCad,Pcbnew,(5.1.5)-3*
G04 #@! TF.CreationDate,2020-07-19T03:42:33+05:30*
G04 #@! TF.ProjectId,HA-V1.0,48412d56-312e-4302-9e6b-696361645f70,rev?*
G04 #@! TF.SameCoordinates,Original*
G04 #@! TF.FileFunction,Copper,L2,Bot*
G04 #@! TF.FilePolarity,Positive*
%FSLAX46Y46*%
G04 Gerber Fmt 4.6, Leading zero omitted, Abs format (unit mm)*
G04 Created by KiCad (PCBNEW (5.1.5)-3) date 2020-07-19 03:42:33*
%MOMM*%
%LPD*%
G04 APERTURE LIST*
%ADD10R,3.000000X3.000000*%
%ADD11C,3.000000*%
%ADD12C,1.500000*%
%ADD13O,1.905000X2.000000*%
%ADD14R,1.905000X2.000000*%
%ADD15O,1.600000X1.600000*%
%ADD16R,1.600000X1.600000*%
%ADD17C,2.000000*%
%ADD18C,1.600000*%
%ADD19O,1.700000X1.700000*%
%ADD20R,1.700000X1.700000*%
%ADD21C,2.400000*%
%ADD22C,0.100000*%
%ADD23O,3.600000X1.800000*%
%ADD24O,2.200000X2.200000*%
%ADD25R,2.200000X2.200000*%
%ADD26C,0.250000*%
%ADD27C,0.750000*%
%ADD28C,0.500000*%
%ADD29C,1.500000*%
G04 APERTURE END LIST*
D10*
X77500000Y-84500000D03*
D11*
X116000000Y-87250000D03*
X77500000Y-95250000D03*
X116000000Y-95250000D03*
D12*
X158500000Y-78300000D03*
X158500000Y-74500000D03*
D13*
X130080000Y-79000000D03*
X127540000Y-79000000D03*
D14*
X125000000Y-79000000D03*
D15*
X160120000Y-112000000D03*
X152500000Y-114540000D03*
X160120000Y-114540000D03*
D16*
X152500000Y-112000000D03*
D15*
X169000000Y-105880000D03*
X171540000Y-113500000D03*
X171540000Y-105880000D03*
D16*
X169000000Y-113500000D03*
D15*
X186000000Y-105880000D03*
X188540000Y-113500000D03*
X188540000Y-105880000D03*
D16*
X186000000Y-113500000D03*
D15*
X143880000Y-99500000D03*
X151500000Y-66480000D03*
X143880000Y-96960000D03*
X151500000Y-69020000D03*
X143880000Y-94420000D03*
X151500000Y-71560000D03*
X143880000Y-91880000D03*
X151500000Y-74100000D03*
X143880000Y-89340000D03*
X151500000Y-76640000D03*
X143880000Y-86800000D03*
X151500000Y-79180000D03*
X143880000Y-84260000D03*
X151500000Y-81720000D03*
X143880000Y-81720000D03*
X151500000Y-84260000D03*
X143880000Y-79180000D03*
X151500000Y-86800000D03*
X143880000Y-76640000D03*
X151500000Y-89340000D03*
X143880000Y-74100000D03*
X151500000Y-91880000D03*
X143880000Y-71560000D03*
X151500000Y-94420000D03*
X143880000Y-69020000D03*
X151500000Y-96960000D03*
X143880000Y-66480000D03*
D16*
X151500000Y-99500000D03*
D17*
X162000000Y-95000000D03*
X162000000Y-99500000D03*
X155500000Y-95000000D03*
X155500000Y-99500000D03*
D15*
X154880000Y-103500000D03*
D18*
X162500000Y-103500000D03*
D15*
X164500000Y-109880000D03*
D18*
X164500000Y-117500000D03*
D15*
X134880000Y-105500000D03*
D18*
X142500000Y-105500000D03*
D15*
X186120000Y-97500000D03*
D18*
X178500000Y-97500000D03*
D15*
X160120000Y-119000000D03*
D18*
X152500000Y-119000000D03*
D15*
X149000000Y-111880000D03*
D18*
X149000000Y-119500000D03*
D15*
X190120000Y-101500000D03*
D18*
X182500000Y-101500000D03*
D15*
X192620000Y-117500000D03*
D18*
X185000000Y-117500000D03*
D15*
X176120000Y-117500000D03*
D18*
X168500000Y-117500000D03*
D15*
X181500000Y-105880000D03*
D18*
X181500000Y-113500000D03*
D13*
X124920000Y-105500000D03*
X127460000Y-105500000D03*
D14*
X130000000Y-105500000D03*
D19*
X139000000Y-99120000D03*
X139000000Y-96580000D03*
X139000000Y-94040000D03*
D20*
X139000000Y-91500000D03*
D21*
X129460000Y-119500000D03*
G04 #@! TA.AperFunction,ComponentPad*
D22*
G36*
X126474504Y-118301204D02*
G01*
X126498773Y-118304804D01*
X126522571Y-118310765D01*
X126545671Y-118319030D01*
X126567849Y-118329520D01*
X126588893Y-118342133D01*
X126608598Y-118356747D01*
X126626777Y-118373223D01*
X126643253Y-118391402D01*
X126657867Y-118411107D01*
X126670480Y-118432151D01*
X126680970Y-118454329D01*
X126689235Y-118477429D01*
X126695196Y-118501227D01*
X126698796Y-118525496D01*
X126700000Y-118550000D01*
X126700000Y-120450000D01*
X126698796Y-120474504D01*
X126695196Y-120498773D01*
X126689235Y-120522571D01*
X126680970Y-120545671D01*
X126670480Y-120567849D01*
X126657867Y-120588893D01*
X126643253Y-120608598D01*
X126626777Y-120626777D01*
X126608598Y-120643253D01*
X126588893Y-120657867D01*
X126567849Y-120670480D01*
X126545671Y-120680970D01*
X126522571Y-120689235D01*
X126498773Y-120695196D01*
X126474504Y-120698796D01*
X126450000Y-120700000D01*
X124550000Y-120700000D01*
X124525496Y-120698796D01*
X124501227Y-120695196D01*
X124477429Y-120689235D01*
X124454329Y-120680970D01*
X124432151Y-120670480D01*
X124411107Y-120657867D01*
X124391402Y-120643253D01*
X124373223Y-120626777D01*
X124356747Y-120608598D01*
X124342133Y-120588893D01*
X124329520Y-120567849D01*
X124319030Y-120545671D01*
X124310765Y-120522571D01*
X124304804Y-120498773D01*
X124301204Y-120474504D01*
X124300000Y-120450000D01*
X124300000Y-118550000D01*
X124301204Y-118525496D01*
X124304804Y-118501227D01*
X124310765Y-118477429D01*
X124319030Y-118454329D01*
X124329520Y-118432151D01*
X124342133Y-118411107D01*
X124356747Y-118391402D01*
X124373223Y-118373223D01*
X124391402Y-118356747D01*
X124411107Y-118342133D01*
X124432151Y-118329520D01*
X124454329Y-118319030D01*
X124477429Y-118310765D01*
X124501227Y-118304804D01*
X124525496Y-118301204D01*
X124550000Y-118300000D01*
X126450000Y-118300000D01*
X126474504Y-118301204D01*
G37*
G04 #@! TD.AperFunction*
D21*
X142960000Y-119500000D03*
G04 #@! TA.AperFunction,ComponentPad*
D22*
G36*
X139974504Y-118301204D02*
G01*
X139998773Y-118304804D01*
X140022571Y-118310765D01*
X140045671Y-118319030D01*
X140067849Y-118329520D01*
X140088893Y-118342133D01*
X140108598Y-118356747D01*
X140126777Y-118373223D01*
X140143253Y-118391402D01*
X140157867Y-118411107D01*
X140170480Y-118432151D01*
X140180970Y-118454329D01*
X140189235Y-118477429D01*
X140195196Y-118501227D01*
X140198796Y-118525496D01*
X140200000Y-118550000D01*
X140200000Y-120450000D01*
X140198796Y-120474504D01*
X140195196Y-120498773D01*
X140189235Y-120522571D01*
X140180970Y-120545671D01*
X140170480Y-120567849D01*
X140157867Y-120588893D01*
X140143253Y-120608598D01*
X140126777Y-120626777D01*
X140108598Y-120643253D01*
X140088893Y-120657867D01*
X140067849Y-120670480D01*
X140045671Y-120680970D01*
X140022571Y-120689235D01*
X139998773Y-120695196D01*
X139974504Y-120698796D01*
X139950000Y-120700000D01*
X138050000Y-120700000D01*
X138025496Y-120698796D01*
X138001227Y-120695196D01*
X137977429Y-120689235D01*
X137954329Y-120680970D01*
X137932151Y-120670480D01*
X137911107Y-120657867D01*
X137891402Y-120643253D01*
X137873223Y-120626777D01*
X137856747Y-120608598D01*
X137842133Y-120588893D01*
X137829520Y-120567849D01*
X137819030Y-120545671D01*
X137810765Y-120522571D01*
X137804804Y-120498773D01*
X137801204Y-120474504D01*
X137800000Y-120450000D01*
X137800000Y-118550000D01*
X137801204Y-118525496D01*
X137804804Y-118501227D01*
X137810765Y-118477429D01*
X137819030Y-118454329D01*
X137829520Y-118432151D01*
X137842133Y-118411107D01*
X137856747Y-118391402D01*
X137873223Y-118373223D01*
X137891402Y-118356747D01*
X137911107Y-118342133D01*
X137932151Y-118329520D01*
X137954329Y-118319030D01*
X137977429Y-118310765D01*
X138001227Y-118304804D01*
X138025496Y-118301204D01*
X138050000Y-118300000D01*
X139950000Y-118300000D01*
X139974504Y-118301204D01*
G37*
G04 #@! TD.AperFunction*
D19*
X171500000Y-94240000D03*
X171500000Y-91700000D03*
X171500000Y-89160000D03*
X171500000Y-86620000D03*
X171500000Y-84080000D03*
X171500000Y-81540000D03*
D20*
X171500000Y-79000000D03*
D23*
X55500000Y-83920000D03*
G04 #@! TA.AperFunction,ComponentPad*
D22*
G36*
X57074504Y-88101204D02*
G01*
X57098773Y-88104804D01*
X57122571Y-88110765D01*
X57145671Y-88119030D01*
X57167849Y-88129520D01*
X57188893Y-88142133D01*
X57208598Y-88156747D01*
X57226777Y-88173223D01*
X57243253Y-88191402D01*
X57257867Y-88211107D01*
X57270480Y-88232151D01*
X57280970Y-88254329D01*
X57289235Y-88277429D01*
X57295196Y-88301227D01*
X57298796Y-88325496D01*
X57300000Y-88350000D01*
X57300000Y-89650000D01*
X57298796Y-89674504D01*
X57295196Y-89698773D01*
X57289235Y-89722571D01*
X57280970Y-89745671D01*
X57270480Y-89767849D01*
X57257867Y-89788893D01*
X57243253Y-89808598D01*
X57226777Y-89826777D01*
X57208598Y-89843253D01*
X57188893Y-89857867D01*
X57167849Y-89870480D01*
X57145671Y-89880970D01*
X57122571Y-89889235D01*
X57098773Y-89895196D01*
X57074504Y-89898796D01*
X57050000Y-89900000D01*
X53950000Y-89900000D01*
X53925496Y-89898796D01*
X53901227Y-89895196D01*
X53877429Y-89889235D01*
X53854329Y-89880970D01*
X53832151Y-89870480D01*
X53811107Y-89857867D01*
X53791402Y-89843253D01*
X53773223Y-89826777D01*
X53756747Y-89808598D01*
X53742133Y-89788893D01*
X53729520Y-89767849D01*
X53719030Y-89745671D01*
X53710765Y-89722571D01*
X53704804Y-89698773D01*
X53701204Y-89674504D01*
X53700000Y-89650000D01*
X53700000Y-88350000D01*
X53701204Y-88325496D01*
X53704804Y-88301227D01*
X53710765Y-88277429D01*
X53719030Y-88254329D01*
X53729520Y-88232151D01*
X53742133Y-88211107D01*
X53756747Y-88191402D01*
X53773223Y-88173223D01*
X53791402Y-88156747D01*
X53811107Y-88142133D01*
X53832151Y-88129520D01*
X53854329Y-88119030D01*
X53877429Y-88110765D01*
X53901227Y-88104804D01*
X53925496Y-88101204D01*
X53950000Y-88100000D01*
X57050000Y-88100000D01*
X57074504Y-88101204D01*
G37*
G04 #@! TD.AperFunction*
D21*
X66500000Y-69000000D03*
X66500000Y-106000000D03*
D24*
X122340000Y-112500000D03*
D25*
X132500000Y-112500000D03*
D18*
X125500000Y-91500000D03*
X130500000Y-91500000D03*
X118000000Y-105500000D03*
X113000000Y-105500000D03*
X165000000Y-78500000D03*
X162500000Y-78500000D03*
X165000000Y-74500000D03*
X162500000Y-74500000D03*
D26*
X187414999Y-104754999D02*
X174254999Y-104754999D01*
X188540000Y-105880000D02*
X187414999Y-104754999D01*
X173129998Y-105880000D02*
X171540000Y-105880000D01*
X174254999Y-104754999D02*
X173129998Y-105880000D01*
X171540000Y-105880000D02*
X171540000Y-113500000D01*
X171540000Y-113500000D02*
X170040000Y-112000000D01*
X162660000Y-112000000D02*
X160120000Y-114540000D01*
X170040000Y-112000000D02*
X162660000Y-112000000D01*
X160120000Y-114540000D02*
X160120000Y-119000000D01*
X160120000Y-114540000D02*
X152500000Y-114540000D01*
X155500000Y-95000000D02*
X155500000Y-85720000D01*
X155390000Y-85610000D02*
X160890000Y-85610000D01*
X155390000Y-85610000D02*
X151500000Y-81720000D01*
X155500000Y-85720000D02*
X155390000Y-85610000D01*
X165000000Y-81500000D02*
X165000000Y-78500000D01*
X160890000Y-85610000D02*
X165000000Y-81500000D01*
X165000000Y-78500000D02*
X165000000Y-74500000D01*
X171000000Y-78500000D02*
X171500000Y-79000000D01*
X165000000Y-78500000D02*
X171000000Y-78500000D01*
X171540000Y-104540000D02*
X162000000Y-95000000D01*
X171540000Y-105880000D02*
X171540000Y-104540000D01*
D27*
X113000000Y-105500000D02*
X117500000Y-110000000D01*
X131350000Y-110000000D02*
X132500000Y-111150000D01*
D26*
X132500000Y-111150000D02*
X132500000Y-112500000D01*
D27*
X117500000Y-110000000D02*
X131350000Y-110000000D01*
D28*
X141700001Y-93100001D02*
X140100000Y-91500000D01*
X141700001Y-104700001D02*
X141700001Y-93100001D01*
D26*
X140100000Y-91500000D02*
X139000000Y-91500000D01*
D28*
X142500000Y-105500000D02*
X141700001Y-104700001D01*
D26*
X142500000Y-105500000D02*
X142500000Y-108500000D01*
X139000000Y-112000000D02*
X139000000Y-119500000D01*
X142500000Y-108500000D02*
X139000000Y-112000000D01*
X162500000Y-107880000D02*
X162500000Y-103500000D01*
X164500000Y-109880000D02*
X162500000Y-107880000D01*
X55500000Y-83920000D02*
X57550000Y-83920000D01*
D29*
X62000000Y-69000000D02*
X66500000Y-69000000D01*
X59500000Y-71500000D02*
X62000000Y-69000000D01*
X59500000Y-81970000D02*
X59500000Y-71500000D01*
X57550000Y-83920000D02*
X59500000Y-81970000D01*
X66500000Y-106000000D02*
X75000000Y-106000000D01*
X77500000Y-103500000D02*
X77500000Y-95250000D01*
X75000000Y-106000000D02*
X77500000Y-103500000D01*
X55500000Y-89000000D02*
X62500000Y-89000000D01*
X67000000Y-84500000D02*
X77500000Y-84500000D01*
X62500000Y-89000000D02*
X67000000Y-84500000D01*
D26*
X130000000Y-105500000D02*
X134880000Y-105500000D01*
X149900000Y-63000000D02*
X143880000Y-69020000D01*
X191500000Y-63000000D02*
X149900000Y-63000000D01*
X185620000Y-110000000D02*
X193500000Y-110000000D01*
X181500000Y-105880000D02*
X185620000Y-110000000D01*
X195000000Y-108500000D02*
X195000000Y-66500000D01*
X193500000Y-110000000D02*
X195000000Y-108500000D01*
X195000000Y-66500000D02*
X191500000Y-63000000D01*
X159320001Y-111200001D02*
X158200001Y-111200001D01*
X160120000Y-112000000D02*
X159320001Y-111200001D01*
X158200001Y-111200001D02*
X155500000Y-108500000D01*
X155500000Y-108500000D02*
X152500000Y-108500000D01*
X152500000Y-108500000D02*
X147500000Y-103500000D01*
X147500000Y-75180000D02*
X143880000Y-71560000D01*
X147500000Y-103500000D02*
X147500000Y-75180000D01*
M02*
