M48
; DRILL file {KiCad (5.1.5)-3} date 7/19/2020 3:42:36 AM
; FORMAT={-:-/ absolute / inch / decimal}
; #@! TF.CreationDate,2020-07-19T03:42:36+05:30
; #@! TF.GenerationSoftware,Kicad,Pcbnew,(5.1.5)-3
; #@! TF.FileFunction,Plated,1,2,PTH
FMAT,2
INCH
T1C0.0315
T2C0.0394
T3C0.0433
T4C0.0472
T5C0.0551
T6C0.0591
%
G90
G05
T1
X6.3976Y-3.0906
X6.4961Y-3.0906
X6.3976Y-2.9331
X6.4961Y-2.9331
X7.3228Y-4.1685
X7.3228Y-4.4685
X7.4228Y-4.1685
X7.4228Y-4.4685
X5.3102Y-4.1535
X5.6102Y-4.1535
X6.0039Y-4.4094
X6.0039Y-4.5094
X6.3039Y-4.4094
X6.3039Y-4.5094
X7.185Y-3.9961
X7.485Y-3.9961
X4.4488Y-4.1535
X4.6457Y-4.1535
X6.0039Y-4.685
X6.3039Y-4.685
X6.0976Y-4.0748
X6.3976Y-4.0748
X5.8661Y-4.4047
X5.8661Y-4.7047
X6.6339Y-4.626
X6.9339Y-4.626
X7.2835Y-4.626
X7.5835Y-4.626
X5.6646Y-2.6173
X5.6646Y-2.7173
X5.6646Y-2.8173
X5.6646Y-2.9173
X5.6646Y-3.0173
X5.6646Y-3.1173
X5.6646Y-3.2173
X5.6646Y-3.3173
X5.6646Y-3.4173
X5.6646Y-3.5173
X5.6646Y-3.6173
X5.6646Y-3.7173
X5.6646Y-3.8173
X5.6646Y-3.9173
X5.9646Y-2.6173
X5.9646Y-2.7173
X5.9646Y-2.8173
X5.9646Y-2.9173
X5.9646Y-3.0173
X5.9646Y-3.1173
X5.9646Y-3.2173
X5.9646Y-3.3173
X5.9646Y-3.4173
X5.9646Y-3.5173
X5.9646Y-3.6173
X5.9646Y-3.7173
X5.9646Y-3.8173
X5.9646Y-3.9173
X7.0276Y-3.8386
X7.3276Y-3.8386
X6.6535Y-4.1685
X6.6535Y-4.4685
X6.7535Y-4.1685
X6.7535Y-4.4685
X4.9409Y-3.6024
X5.1378Y-3.6024
X6.4764Y-4.326
X6.4764Y-4.626
X7.1457Y-4.1685
X7.1457Y-4.4685
X6.2402Y-2.9331
X6.2402Y-3.0827
T2
X5.4724Y-3.6024
X5.4724Y-3.7024
X5.4724Y-3.8024
X5.4724Y-3.9024
X6.752Y-3.1102
X6.752Y-3.2102
X6.752Y-3.3102
X6.752Y-3.4102
X6.752Y-3.5102
X6.752Y-3.6102
X6.752Y-3.7102
T3
X6.122Y-3.7402
X6.122Y-3.9173
X6.378Y-3.7402
X6.378Y-3.9173
X4.9181Y-4.1535
X5.0181Y-4.1535
X5.1181Y-4.1535
X4.9213Y-3.1102
X5.0213Y-3.1102
X5.1213Y-3.1102
X4.8165Y-4.4291
X5.2165Y-4.4291
T4
X2.185Y-3.3039
X2.185Y-3.5039
X2.6181Y-2.7165
X2.6181Y-4.1732
T5
X4.9409Y-4.7047
X5.0969Y-4.7047
X5.4724Y-4.7047
X5.6283Y-4.7047
T6
X3.0512Y-3.3268
X3.0512Y-3.75
X4.5669Y-3.435
X4.5669Y-3.75
T0
M30
