M48
; DRILL file {KiCad (5.1.5)-3} date 7/19/2020 3:38:48 AM
; FORMAT={-:-/ absolute / inch / decimal}
; #@! TF.CreationDate,2020-07-19T03:38:48+05:30
; #@! TF.GenerationSoftware,Kicad,Pcbnew,(5.1.5)-3
; #@! TF.FileFunction,Plated,1,2,PTH
FMAT,2
INCH
T1C0.0315
T2C0.0394
T3C0.0433
T4C0.0512
%
G90
G05
T1
X4.685Y-3.2283
X4.685Y-3.5283
X4.3307Y-3.2283
X4.3307Y-3.5283
X4.5669Y-3.2283
X4.5669Y-3.5283
X4.8031Y-3.2283
X4.8031Y-3.5283
X4.4488Y-3.2283
X4.4488Y-3.5283
T2
X4.2425Y-3.0315
X4.3425Y-3.0315
X4.4425Y-3.0315
X4.5425Y-3.0315
X4.6425Y-3.0315
X4.7425Y-3.0315
X4.8425Y-3.0315
T3
X2.9921Y-3.3465
X2.9921Y-3.5236
X3.248Y-3.3465
X3.248Y-3.5236
X2.9921Y-2.9134
X2.9921Y-3.0906
X3.248Y-2.9134
X3.248Y-3.0906
X3.622Y-3.3858
X3.622Y-3.563
X3.878Y-3.3858
X3.878Y-3.563
X2.9921Y-3.7795
X2.9921Y-3.9567
X3.248Y-3.7795
X3.248Y-3.9567
T4
X5.2362Y-3.2283
X5.2362Y-3.7205
X5.4331Y-3.2283
X5.4331Y-3.7205
T0
M30
