G04 #@! TF.GenerationSoftware,KiCad,Pcbnew,(5.1.5)-3*
G04 #@! TF.CreationDate,2020-07-19T03:38:45+05:30*
G04 #@! TF.ProjectId,HA-Button-V1.0,48412d42-7574-4746-9f6e-2d56312e302e,rev?*
G04 #@! TF.SameCoordinates,Original*
G04 #@! TF.FileFunction,Copper,L2,Bot*
G04 #@! TF.FilePolarity,Positive*
%FSLAX46Y46*%
G04 Gerber Fmt 4.6, Leading zero omitted, Abs format (unit mm)*
G04 Created by KiCad (PCBNEW (5.1.5)-3) date 2020-07-19 03:38:45*
%MOMM*%
%LPD*%
G04 APERTURE LIST*
%ADD10O,1.850000X3.048000*%
%ADD11C,2.000000*%
%ADD12O,1.600000X1.600000*%
%ADD13C,1.600000*%
%ADD14O,1.700000X1.700000*%
%ADD15R,1.700000X1.700000*%
%ADD16C,0.250000*%
G04 APERTURE END LIST*
D10*
X133000000Y-82000000D03*
X138000000Y-82000000D03*
X133000000Y-94500000D03*
X138000000Y-94500000D03*
D11*
X82500000Y-96000000D03*
X82500000Y-100500000D03*
X76000000Y-96000000D03*
X76000000Y-100500000D03*
X82500000Y-74000000D03*
X82500000Y-78500000D03*
X76000000Y-74000000D03*
X76000000Y-78500000D03*
X82500000Y-85000000D03*
X82500000Y-89500000D03*
X76000000Y-85000000D03*
X76000000Y-89500000D03*
X98500000Y-86000000D03*
X98500000Y-90500000D03*
X92000000Y-86000000D03*
X92000000Y-90500000D03*
D12*
X122000000Y-89620000D03*
D13*
X122000000Y-82000000D03*
D12*
X119000000Y-89620000D03*
D13*
X119000000Y-82000000D03*
D12*
X116000000Y-89620000D03*
D13*
X116000000Y-82000000D03*
D12*
X113000000Y-89620000D03*
D13*
X113000000Y-82000000D03*
D12*
X110000000Y-89620000D03*
D13*
X110000000Y-82000000D03*
D14*
X107760000Y-77000000D03*
X110300000Y-77000000D03*
X112840000Y-77000000D03*
X115380000Y-77000000D03*
X117920000Y-77000000D03*
X120460000Y-77000000D03*
D15*
X123000000Y-77000000D03*
D16*
X138000000Y-82000000D02*
X138000000Y-76000000D01*
X138000000Y-76000000D02*
X136000000Y-74000000D01*
X110760000Y-74000000D02*
X107760000Y-77000000D01*
X136000000Y-74000000D02*
X110760000Y-74000000D01*
X109840000Y-80000000D02*
X112840000Y-77000000D01*
X83914213Y-89500000D02*
X90414213Y-83000000D01*
X82500000Y-89500000D02*
X83914213Y-89500000D01*
X105000000Y-83000000D02*
X108000000Y-80000000D01*
X90414213Y-83000000D02*
X105000000Y-83000000D01*
X108000000Y-80000000D02*
X109840000Y-80000000D01*
X83914213Y-100500000D02*
X85414213Y-99000000D01*
X82500000Y-100500000D02*
X83914213Y-100500000D01*
X85414213Y-99000000D02*
X94000000Y-99000000D01*
X94000000Y-99000000D02*
X106000000Y-87000000D01*
X106000000Y-87000000D02*
X116000000Y-87000000D01*
X117125001Y-85874999D02*
X117125001Y-78874999D01*
X116000000Y-87000000D02*
X117125001Y-85874999D01*
X117125001Y-78874999D02*
X118000000Y-78000000D01*
X118000000Y-77080000D02*
X117920000Y-77000000D01*
X118000000Y-78000000D02*
X118000000Y-77080000D01*
X124100000Y-77000000D02*
X125000000Y-77900000D01*
X123000000Y-77000000D02*
X124100000Y-77000000D01*
X125000000Y-86620000D02*
X122000000Y-89620000D01*
X125000000Y-77900000D02*
X125000000Y-86620000D01*
X122000000Y-89620000D02*
X119000000Y-89620000D01*
X119000000Y-89620000D02*
X116000000Y-89620000D01*
X116000000Y-89620000D02*
X113000000Y-89620000D01*
X113000000Y-89620000D02*
X110000000Y-89620000D01*
M02*
